<?xml version="1.0" encoding="UTF-8"?>
<svg version="1.1" xmlns="http://www.w3.org/2000/svg" width="500" height="500">
<path d="M0 0 C165 0 330 0 500 0 C500 165 500 330 500 500 C335 500 170 500 0 500 C0 335 0 170 0 0 Z " fill="#FEFEFE" transform="translate(0,0)"/>
<path d="M0 0 C3.07388417 4.00941413 4.1276781 6.04110792 4.0625 11.125 C4.05347656 12.03507813 4.04445312 12.94515625 4.03515625 13.8828125 C4.02355469 14.58148438 4.01195312 15.28015625 4 16 C4.9075 16.04125 5.815 16.0825 6.75 16.125 C10 17 10 17 12.375 19.5 C14.93661367 25.01732175 14.53417409 29.78699305 13.125 35.625 C12.9821428 39.48214429 13.42853451 40.03502174 15.8125 42.875 C17.52326146 44.68735062 18.76758593 45.88379296 21 47 C21.20625 45.741875 21.4125 44.48375 21.625 43.1875 C24.57955064 30.1874772 33.29972671 19.75168702 44.3125 12.625 C57.74796602 4.97854814 70.89920151 3.05308935 86.15625 5.5078125 C88.55910674 6.1693585 90.72886716 6.97819706 93 8 C93.80050781 8.32871094 94.60101563 8.65742187 95.42578125 8.99609375 C110.60536419 15.81864347 120.16988017 27.693206 126 43 C127.8617814 48.44262925 128.31766848 53.19444088 128.25 58.875 C128.24540771 59.67147949 128.24081543 60.46795898 128.23608398 61.28857422 C128.16312236 66.00547071 127.82548521 70.4001045 126.54760742 74.96386719 C125.16299815 80.11216916 124.41976846 83.5221453 126.37109375 88.4921875 C127.05300781 89.60851562 127.73492187 90.72484375 128.4375 91.875 C128.98676147 92.77617554 128.98676147 92.77617554 129.54711914 93.69555664 C134.65551659 101.90114561 140.13868429 108.71328839 147.9453125 114.48046875 C154.6752785 119.45757288 154.6752785 119.45757288 155.5 123.375 C154.83031614 126.89084024 153.52430638 129.76084893 152 133 C151.34 133 150.68 133 150 133 C150.061875 133.78375 150.12375 134.5675 150.1875 135.375 C150.125625 136.24125 150.06375 137.1075 150 138 C146.23965212 140.50689858 143.3502199 140.73968386 139 140 C136.3544374 138.91845541 133.89530456 137.67074985 131.39453125 136.2890625 C127.82025476 134.34580153 127.82025476 134.34580153 124 133 C121.94546662 134.03243673 121.94546662 134.03243673 120.1875 135.8125 C116.05283934 139.24105163 113.35990931 140 108 140 C106 138 106 138 105.9375 134.9375 C106.69284223 130.38632401 109.50933437 127.36696051 112.40625 123.91796875 C114.05230949 122.0851081 114.05230949 122.0851081 115 120 C113.92162693 117.60230947 112.79679783 115.31518011 111.5625 113 C108 106.24142857 108 106.24142857 108 104 C107.35675781 104.45890625 106.71351563 104.9178125 106.05078125 105.390625 C96.96507257 111.56009337 88.28299376 114.97058328 77.25 115.375 C71.35352152 115.64001027 66.38912954 116.91004619 60.875 118.875 C60.1521582 119.13200684 59.42931641 119.38901367 58.68457031 119.65380859 C55.07358761 121.00899318 51.82215955 122.32712344 49 125 C48.27034634 127.56282742 48.27034634 127.56282742 48 130 C47 131 47 131 45.15234375 131.09765625 C43.1015625 131.06510417 41.05078125 131.03255208 39 131 C38.814375 131.5775 38.62875 132.155 38.4375 132.75 C36.34392467 136.02690052 33.55856626 137.53380961 30 139 C27.0625 139.25 27.0625 139.25 25 139 C25 139.66 25 140.32 25 141 C22.11449286 142.96214485 19.46229827 143.53383626 15.99609375 142.9375 C11.31512024 140.73899972 8.22388716 135.91164976 5 132 C1.87651775 128.71633917 -1.43535359 125.70537551 -4.8125 122.6875 C-6.54401346 121.12760104 -8.2732639 119.56518563 -10 118 C-10.69609375 117.37222656 -11.3921875 116.74445313 -12.109375 116.09765625 C-21.09632983 107.59599698 -30.68366102 95.06670091 -33.0625 82.6875 C-33 79 -33 79 -31.4375 76.1875 C-28.77065385 73.79417653 -26.22213745 72.54662597 -23 71 C-22.071875 70.113125 -21.14375 69.22625 -20.1875 68.3125 C-16.53864857 65.66529406 -14.73798451 65.26545826 -10.34765625 65.5 C-6.91252655 66.23160832 -4.3431268 67.92554302 -1.390625 69.7734375 C1.32314008 71.1657941 3.61242977 71.58021562 6.625 72 C12.0224978 72.77215256 14.79751224 74.60224394 19 78 C19.66 78 20.32 78 21 78 C21.33 77.34 21.66 76.68 22 76 C20.88818359 75.58041016 20.88818359 75.58041016 19.75390625 75.15234375 C12.7768931 72.23288435 7.15721441 67.42834392 1.625 62.375 C1.11316162 61.90779541 0.60132324 61.44059082 0.07397461 60.95922852 C-2.0281144 58.99864972 -3.92165663 57.1110348 -5.58203125 54.7578125 C-7.34654827 52.57039471 -8.62174596 52.20638103 -11.3125 51.5 C-17.74812095 49.55677679 -22.13946821 46.5763237 -26 41 C-26.495 39.515 -26.495 39.515 -27 38 C-26.34 37.01 -25.68 36.02 -25 35 C-24.773125 35.886875 -24.54625 36.77375 -24.3125 37.6875 C-22.26539653 42.85399923 -19.43326474 45.24427859 -14.5625 47.8125 C-9.89629398 49.36790201 -6.65678218 49.55226073 -2 48 C-1.67 47.01 -1.34 46.02 -1 45 C-0.01 45.495 -0.01 45.495 1 46 C-0.65 47.65 -2.3 49.3 -4 51 C-0.41708248 58.82676158 6.02827657 64.21938965 13 69 C16.12197478 67.6910428 16.12197478 67.6910428 18 65 C18.39227838 62.29127482 18.74569498 59.59248307 19.0625 56.875 C19.15337891 56.12089844 19.24425781 55.36679688 19.33789062 54.58984375 C19.56190852 52.72695812 19.78138573 50.86352748 20 49 C19.40703125 48.74476563 18.8140625 48.48953125 18.203125 48.2265625 C15.78775462 46.88183502 14.48788294 45.50785633 12.75 43.375 C12.22921875 42.74335938 11.7084375 42.11171875 11.171875 41.4609375 C10.78515625 40.97882813 10.3984375 40.49671875 10 40 C8.68 40.66 7.36 41.32 6 42 C6 41.34 6 40.68 6 40 C6.66 40 7.32 40 8 40 C8.309375 39.38125 8.61875 38.7625 8.9375 38.125 C9.625 36.75 10.3125 35.375 11 34 C11.09657872 32.2104531 11.12980468 30.41714466 11.125 28.625 C11.12757813 27.66851562 11.13015625 26.71203125 11.1328125 25.7265625 C11.01551878 23.31859146 10.68675951 21.30009932 10 19 C5.21859411 18.53123472 2.06212581 18.26978851 -2 21.0625 C-4.31677426 24.4652622 -4.76038724 26.926583 -5 31 C-1.04179141 30.43454163 1.6659053 29.19097652 5 27 C4.65355522 35.10680787 4.65355522 35.10680787 2.125 38.5625 C0 40 0 40 -3 40 C-3.226875 40.639375 -3.45375 41.27875 -3.6875 41.9375 C-5 44 -5 44 -7.25 45 C-11.1445502 45 -13.03637202 43.41225533 -16 41 C-16 40.34 -16 39.68 -16 39 C-12.7 39.33 -9.4 39.66 -6 40 C-6.62329019 36.14737093 -6.62329019 36.14737093 -8.5 34.375 C-12.13563666 32.37539984 -15.94334571 31.7367855 -20 31 C-20 30.01 -20 29.02 -20 28 C-20.0825 27.175 -20.165 26.35 -20.25 25.5 C-20 23 -20 23 -18.375 21.25 C-15.59081567 19.78463983 -13.09501772 19.45789303 -10 19 C-9.82984375 18.10796875 -9.6596875 17.2159375 -9.484375 16.296875 C-9.24203125 15.12640625 -8.9996875 13.9559375 -8.75 12.75 C-8.51796875 11.58984375 -8.2859375 10.4296875 -8.046875 9.234375 C-6.91701945 5.74362727 -5.90237575 4.20405978 -3 2 C-2.01 2 -1.02 2 0 2 C0 1.34 0 0.68 0 0 Z " fill="#FCFDFF" transform="translate(194,118)"/>
<path d="M0 0 C3.07388417 4.00941413 4.1276781 6.04110792 4.0625 11.125 C4.05347656 12.03507813 4.04445312 12.94515625 4.03515625 13.8828125 C4.02355469 14.58148438 4.01195312 15.28015625 4 16 C4.9075 16.04125 5.815 16.0825 6.75 16.125 C10 17 10 17 12.375 19.5 C14.93661367 25.01732175 14.53417409 29.78699305 13.125 35.625 C12.9821428 39.48214429 13.42853451 40.03502174 15.8125 42.875 C17.52326146 44.68735062 18.76758593 45.88379296 21 47 C21.20625 45.741875 21.4125 44.48375 21.625 43.1875 C24.57955064 30.1874772 33.29972671 19.75168702 44.3125 12.625 C57.74796602 4.97854814 70.89920151 3.05308935 86.15625 5.5078125 C88.55910674 6.1693585 90.72886716 6.97819706 93 8 C93.80050781 8.32871094 94.60101563 8.65742187 95.42578125 8.99609375 C110.60536419 15.81864347 120.16988017 27.693206 126 43 C127.8617814 48.44262925 128.31766848 53.19444088 128.25 58.875 C128.24540771 59.67147949 128.24081543 60.46795898 128.23608398 61.28857422 C128.16312236 66.00547071 127.82548521 70.4001045 126.54760742 74.96386719 C125.16299815 80.11216916 124.41976846 83.5221453 126.37109375 88.4921875 C127.05300781 89.60851562 127.73492187 90.72484375 128.4375 91.875 C128.98676147 92.77617554 128.98676147 92.77617554 129.54711914 93.69555664 C134.65551659 101.90114561 140.13868429 108.71328839 147.9453125 114.48046875 C154.6752785 119.45757288 154.6752785 119.45757288 155.5 123.375 C154.83031614 126.89084024 153.52430638 129.76084893 152 133 C151.34 133 150.68 133 150 133 C150.061875 133.78375 150.12375 134.5675 150.1875 135.375 C150.125625 136.24125 150.06375 137.1075 150 138 C146.23965212 140.50689858 143.3502199 140.73968386 139 140 C136.3544374 138.91845541 133.89530456 137.67074985 131.39453125 136.2890625 C127.82025476 134.34580153 127.82025476 134.34580153 124 133 C121.94546662 134.03243673 121.94546662 134.03243673 120.1875 135.8125 C116.05283934 139.24105163 113.35990931 140 108 140 C106 138 106 138 105.9375 134.9375 C106.69284223 130.38632401 109.50933437 127.36696051 112.40625 123.91796875 C114.05230949 122.0851081 114.05230949 122.0851081 115 120 C113.92162693 117.60230947 112.79679783 115.31518011 111.5625 113 C108 106.24142857 108 106.24142857 108 104 C107.35675781 104.45890625 106.71351563 104.9178125 106.05078125 105.390625 C96.96507257 111.56009337 88.28299376 114.97058328 77.25 115.375 C71.35352152 115.64001027 66.38912954 116.91004619 60.875 118.875 C60.1521582 119.13200684 59.42931641 119.38901367 58.68457031 119.65380859 C55.07358761 121.00899318 51.82215955 122.32712344 49 125 C48.27034634 127.56282742 48.27034634 127.56282742 48 130 C47 131 47 131 45.15234375 131.09765625 C43.1015625 131.06510417 41.05078125 131.03255208 39 131 C38.814375 131.5775 38.62875 132.155 38.4375 132.75 C36.34392467 136.02690052 33.55856626 137.53380961 30 139 C27.0625 139.25 27.0625 139.25 25 139 C25 139.66 25 140.32 25 141 C22.11449286 142.96214485 19.46229827 143.53383626 15.99609375 142.9375 C11.31512024 140.73899972 8.22388716 135.91164976 5 132 C1.87651775 128.71633917 -1.43535359 125.70537551 -4.8125 122.6875 C-6.54401346 121.12760104 -8.2732639 119.56518563 -10 118 C-10.69609375 117.37222656 -11.3921875 116.74445313 -12.109375 116.09765625 C-21.09632983 107.59599698 -30.68366102 95.06670091 -33.0625 82.6875 C-33 79 -33 79 -31.4375 76.1875 C-28.77065385 73.79417653 -26.22213745 72.54662597 -23 71 C-22.071875 70.113125 -21.14375 69.22625 -20.1875 68.3125 C-16.53864857 65.66529406 -14.73798451 65.26545826 -10.34765625 65.5 C-6.91252655 66.23160832 -4.3431268 67.92554302 -1.390625 69.7734375 C1.32314008 71.1657941 3.61242977 71.58021562 6.625 72 C12.0224978 72.77215256 14.79751224 74.60224394 19 78 C19.66 78 20.32 78 21 78 C21.33 77.34 21.66 76.68 22 76 C20.88818359 75.58041016 20.88818359 75.58041016 19.75390625 75.15234375 C12.7768931 72.23288435 7.15721441 67.42834392 1.625 62.375 C1.11316162 61.90779541 0.60132324 61.44059082 0.07397461 60.95922852 C-2.0281144 58.99864972 -3.92165663 57.1110348 -5.58203125 54.7578125 C-7.34654827 52.57039471 -8.62174596 52.20638103 -11.3125 51.5 C-17.74812095 49.55677679 -22.13946821 46.5763237 -26 41 C-26.495 39.515 -26.495 39.515 -27 38 C-26.34 37.01 -25.68 36.02 -25 35 C-24.773125 35.886875 -24.54625 36.77375 -24.3125 37.6875 C-22.26539653 42.85399923 -19.43326474 45.24427859 -14.5625 47.8125 C-9.89629398 49.36790201 -6.65678218 49.55226073 -2 48 C-1.67 47.01 -1.34 46.02 -1 45 C-0.01 45.495 -0.01 45.495 1 46 C-0.65 47.65 -2.3 49.3 -4 51 C-0.41708248 58.82676158 6.02827657 64.21938965 13 69 C16.12197478 67.6910428 16.12197478 67.6910428 18 65 C18.39227838 62.29127482 18.74569498 59.59248307 19.0625 56.875 C19.15337891 56.12089844 19.24425781 55.36679688 19.33789062 54.58984375 C19.56190852 52.72695812 19.78138573 50.86352748 20 49 C19.40703125 48.74476563 18.8140625 48.48953125 18.203125 48.2265625 C15.78775462 46.88183502 14.48788294 45.50785633 12.75 43.375 C12.22921875 42.74335938 11.7084375 42.11171875 11.171875 41.4609375 C10.78515625 40.97882813 10.3984375 40.49671875 10 40 C8.68 40.66 7.36 41.32 6 42 C6 41.34 6 40.68 6 40 C6.66 40 7.32 40 8 40 C8.309375 39.38125 8.61875 38.7625 8.9375 38.125 C9.625 36.75 10.3125 35.375 11 34 C11.09657872 32.2104531 11.12980468 30.41714466 11.125 28.625 C11.12757813 27.66851562 11.13015625 26.71203125 11.1328125 25.7265625 C11.01551878 23.31859146 10.68675951 21.30009932 10 19 C5.21859411 18.53123472 2.06212581 18.26978851 -2 21.0625 C-4.31677426 24.4652622 -4.76038724 26.926583 -5 31 C-1.04179141 30.43454163 1.6659053 29.19097652 5 27 C4.65355522 35.10680787 4.65355522 35.10680787 2.125 38.5625 C0 40 0 40 -3 40 C-3.226875 40.639375 -3.45375 41.27875 -3.6875 41.9375 C-5 44 -5 44 -7.25 45 C-11.1445502 45 -13.03637202 43.41225533 -16 41 C-16 40.34 -16 39.68 -16 39 C-12.7 39.33 -9.4 39.66 -6 40 C-6.62329019 36.14737093 -6.62329019 36.14737093 -8.5 34.375 C-12.13563666 32.37539984 -15.94334571 31.7367855 -20 31 C-20 30.01 -20 29.02 -20 28 C-20.0825 27.175 -20.165 26.35 -20.25 25.5 C-20 23 -20 23 -18.375 21.25 C-15.59081567 19.78463983 -13.09501772 19.45789303 -10 19 C-9.82984375 18.10796875 -9.6596875 17.2159375 -9.484375 16.296875 C-9.24203125 15.12640625 -8.9996875 13.9559375 -8.75 12.75 C-8.51796875 11.58984375 -8.2859375 10.4296875 -8.046875 9.234375 C-6.91701945 5.74362727 -5.90237575 4.20405978 -3 2 C-2.01 2 -1.02 2 0 2 C0 1.34 0 0.68 0 0 Z M35.6875 21.8125 C24.73498707 33.50263114 20.39703296 47.25805485 20.74462891 62.95483398 C20.81200581 64.97056076 20.90335384 66.98546443 21 69 C21.928125 69.45375 22.85625 69.9075 23.8125 70.375 C27 72 27 72 30 74 C31.11375 74.04125 32.2275 74.0825 33.375 74.125 C37 75 37 75 38.35546875 76.69921875 C39.16975997 78.1248872 39.96502486 79.56156945 40.7421875 81.0078125 C42.55416757 83.87771882 45.18320508 85.18473216 48 87 C50.74915703 91.49862059 50 94.25132116 50 100 C56.6 100 63.2 100 70 100 C68.49566406 100.13277344 66.99132812 100.26554687 65.44140625 100.40234375 C63.48174947 100.58049437 61.52211519 100.75889254 59.5625 100.9375 C58.56927734 101.02451172 57.57605469 101.11152344 56.55273438 101.20117188 C55.60849609 101.28818359 54.66425781 101.37519531 53.69140625 101.46484375 C52.37958374 101.58267212 52.37958374 101.58267212 51.04125977 101.70288086 C49.00985544 101.79085048 49.00985544 101.79085048 48 103 C47.566875 102.071875 47.13375 101.14375 46.6875 100.1875 C44.88883078 96.57830237 44.88883078 96.57830237 42 94 C39.34533951 94.23043864 39.34533951 94.23043864 37 95 C36.67 96.65 36.34 98.3 36 100 C35.34 99.01 34.68 98.02 34 97 C32.00428677 96.32060826 30.00405227 95.65438441 28 95 C25.40717907 92.87041258 24.33345188 90.78348956 23.125 87.6875 C20.77584874 82.21504536 18.24660936 78.49773958 13.1875 75.125 C9.00281307 73.64805167 6.43793081 73.50689658 2 74 C-1.14744519 75.23453709 -1.14744519 75.23453709 -3 78 C-5.27944193 93.19627955 2.96254143 110.60698222 11.56640625 122.71875 C17.61531853 131.93289956 17.61531853 131.93289956 26.28125 137.4453125 C31.9443496 136.62775235 33.94715922 135.15675977 38 131 C40.72734001 130.27715237 43.1585667 130.14447966 46 130 C46.33 128.35 46.66 126.7 47 125 C46.01 125.66 45.02 126.32 44 127 C40 122.125 40 122.125 40 121 C41.32 122.32 42.64 123.64 44 125 C46.64 123.68 49.28 122.36 52 121 C51.34 118.03 50.68 115.06 50 112 C50.99 114.31 51.98 116.62 53 119 C56.42379528 118.57202559 59.18523395 117.92110406 62.375 116.5625 C68.86377941 113.96698824 76.10560442 113.71119372 83 113 C83.12632812 112.22785156 83.25265625 111.45570313 83.3828125 110.66015625 C84.1660469 107.28431686 85.73889201 105.59362387 88 103 C88.680625 101.9171875 88.680625 101.9171875 89.375 100.8125 C91 99 91 99 93.9375 98.125 C97.93821211 96.65535065 98.78542078 94.54332675 101 91 C103.1171875 89.8125 103.1171875 89.8125 105 89 C105.165 90.27875 105.33 91.5575 105.5 92.875 C107.42654909 102.73439829 112.50283333 112.07780043 117 121 C116.51789063 121.53109375 116.03578125 122.0621875 115.5390625 122.609375 C114.59160156 123.66898438 114.59160156 123.66898438 113.625 124.75 C112.99851562 125.44609375 112.37203125 126.1421875 111.7265625 126.859375 C108.69947413 130.61241669 107.73163901 133.16950221 108 138 C110.73863822 139.08908636 111.74762209 139.1081058 114.5078125 137.92578125 C115.37148438 137.39339844 116.23515625 136.86101562 117.125 136.3125 C117.99382812 135.79300781 118.86265625 135.27351562 119.7578125 134.73828125 C122.06436538 132.95010001 122.95761292 131.68795321 124 129 C124.66386719 129.48210937 125.32773437 129.96421875 126.01171875 130.4609375 C126.89472656 131.09257812 127.77773438 131.72421875 128.6875 132.375 C129.55761719 133.00148438 130.42773438 133.62796875 131.32421875 134.2734375 C135.51310638 136.97634017 138.81297106 138.27423967 143.8125 138.125 C144.60269531 138.10695313 145.39289063 138.08890625 146.20703125 138.0703125 C146.79871094 138.04710937 147.39039063 138.02390625 148 138 C148.33 136.68 148.66 135.36 149 134 C148.44570313 133.51789063 147.89140625 133.03578125 147.3203125 132.5390625 C146.23363281 131.59160156 146.23363281 131.59160156 145.125 130.625 C144.40570313 129.99851562 143.68640625 129.37203125 142.9453125 128.7265625 C141.5923402 127.52573166 140.2791655 126.2791655 139 125 C139.61488281 125.433125 140.22976563 125.86625 140.86328125 126.3125 C141.67152344 126.869375 142.47976563 127.42625 143.3125 128 C144.11300781 128.556875 144.91351563 129.11375 145.73828125 129.6875 C147.99663018 131.25095964 147.99663018 131.25095964 151 131 C150.91548357 128.12644151 150.45477932 126.45701411 148.41015625 124.40234375 C147.1552403 123.3578636 145.88324699 122.33350534 144.59375 121.33203125 C143 120 143 120 142 118 C142.53109375 118.44472656 143.0621875 118.88945312 143.609375 119.34765625 C144.31578125 119.91355469 145.0221875 120.47945313 145.75 121.0625 C146.44609375 121.63097656 147.1421875 122.19945312 147.859375 122.78515625 C149.92531301 124.24492279 149.92531301 124.24492279 152.265625 123.68359375 C152.83796875 123.45800781 153.4103125 123.23242188 154 123 C150.66242499 118.89061076 147.44204151 115.14298108 143.0625 112.125 C132.27655664 104.32593327 126.51642216 91.5743243 120.4609375 80.078125 C120.04070312 79.28921875 119.62046875 78.5003125 119.1875 77.6875 C118.85105469 77.03136719 118.51460938 76.37523437 118.16796875 75.69921875 C116.69710926 73.55933956 115.21185836 72.35352526 113 71 C109.37464024 70.7496423 109.37464024 70.7496423 106 71 C105.67 71 105.34 71 105 71 C109.60215054 65.24731183 109.60215054 65.24731183 112.3125 63.5625 C114.424107 61.97176324 114.424107 61.97176324 114.1875 58.375 C114.125625 57.26125 114.06375 56.1475 114 55 C115 54 115 54 117.375 53.9375 C118.24125 53.958125 119.1075 53.97875 120 54 C123.05270463 54.15811388 123.05270463 54.15811388 126 53 C125.67 50.69 125.34 48.38 125 46 C124.2265625 46.495 124.2265625 46.495 123.4375 47 C120.03878205 48.39434583 117.64405552 48.44751559 114 48 C111.3125 45.6875 111.3125 45.6875 109 43 C107.68824014 41.97186389 106.3630107 40.95915568 105 40 C106.39759905 43.54518884 106.39759905 43.54518884 108 47 C108.51512617 51.09157355 108.94367269 55.23589546 106.953125 58.95703125 C105.18601378 61.09315687 103.49101659 62.75449171 101 64 C97.9375 64.125 97.9375 64.125 95 64 C94.67 63.67 94.34 63.34 94 63 C94.00590247 60.93708761 94.05511062 58.87423661 94.125 56.8125 C94.18807423 51.55440277 93.5350576 48.62923561 91 44 C91.12078248 40.43691681 91.24406677 38.03081804 93.375 35.125 C95 34 95 34 98 33 C97.74098964 27.99246629 97.41130056 24.23309707 93.86328125 20.37109375 C90.51528138 17.9074712 86.63850923 16.64346584 82.7421875 15.2734375 C79.76278864 13.88984202 78.65048705 12.7965063 77 10 C76.3125 7.75 76.3125 7.75 76 6 C60.58130827 6 46.92399401 11.21931672 35.6875 21.8125 Z " fill="#6F89FF" transform="translate(194,118)"/>
<path d="M0 0 C0.80759766 -0.020625 1.61519531 -0.04125 2.44726562 -0.0625 C7.18772182 -0.0935595 10.36360472 0.13261489 14.1875 3.25 C16.68622257 6.99808386 16.80151134 9.91305912 16.1875 14.25 C14.16912519 20.60727635 10.06135747 24.86900452 5.1875 29.25 C6.5075 28.59 7.8275 27.93 9.1875 27.25 C8.878125 27.8275 8.56875 28.405 8.25 29 C7.11672397 31.1707821 7.11672397 31.1707821 6.75 33.375 C6.1875 35.25 6.1875 35.25 3.1875 37.25 C0.5 37.375 0.5 37.375 -1.8125 37.25 C-1.8125 37.91 -1.8125 38.57 -1.8125 39.25 C-2.575625 39.600625 -3.33875 39.95125 -4.125 40.3125 C-8.74391323 43.64241419 -9.2994746 48.96470504 -10.5 54.3125 C-10.6546875 55.2715625 -10.6546875 55.2715625 -10.8125 56.25 C-11.1425 56.25 -11.4725 56.25 -11.8125 56.25 C-12.31854984 49.26370081 -11.8458905 45.04799884 -7.8125 39.25 C-9.1325 38.59 -10.4525 37.93 -11.8125 37.25 C-11.8125 36.59 -11.8125 35.93 -11.8125 35.25 C-13.359375 35.3428125 -13.359375 35.3428125 -14.9375 35.4375 C-19.13349121 35.23446817 -21.36699103 34.6290419 -24.8125 32.25 C-25.6875 30.0625 -25.6875 30.0625 -25.8125 27.25 C-25.86148438 26.59128906 -25.91046875 25.93257812 -25.9609375 25.25390625 C-26.10203213 22.29634579 -26.15904407 19.90231825 -24.75 17.25 C-21.79162322 15.72309585 -19.07533401 16.06531128 -15.8125 16.25 C-15.89951172 15.37988281 -15.89951172 15.37988281 -15.98828125 14.4921875 C-16.23957555 10.14120624 -16.30705454 7.20019754 -13.4375 3.75 C-9.1548224 -0.32874057 -5.67252633 0.03570434 0 0 Z M6.1875 55.25 C8.29108381 56.79262813 9.02804159 57.93108317 10.1875 60.25 C10.7022039 65.41391457 11.20468869 70.4916778 8.1875 74.9375 C7.5275 75.700625 6.8675 76.46375 6.1875 77.25 C7.1775 76.92 8.1675 76.59 9.1875 76.25 C9.66960937 76.88808594 10.15171875 77.52617187 10.6484375 78.18359375 C11.28007812 79.00988281 11.91171875 79.83617187 12.5625 80.6875 C13.18898437 81.51121094 13.81546875 82.33492187 14.4609375 83.18359375 C16.02503904 85.33528092 16.02503904 85.33528092 18.1875 86.25 C18.12721999 88.81491456 18.04012053 91.37421757 17.9375 93.9375 C17.92332031 94.65873047 17.90914062 95.37996094 17.89453125 96.12304688 C17.6697262 101.04627744 16.78042747 103.60677155 13.1875 107.25 C8.56922678 105.80146412 5.51002558 103.14198185 2.0625 99.875 C1.53785156 99.39289063 1.01320312 98.91078125 0.47265625 98.4140625 C-5.05556622 93.26371853 -5.05556622 93.26371853 -6.8125 90.25 C-5.70070837 86.91462511 -4.33838702 85.61292656 -1.8125 83.25 C-4.0219169 85.68035859 -5.76233591 87.13291481 -9.08984375 87.50390625 C-17.29468629 87.08671087 -21.70221967 83.28441984 -27.375 77.75 C-28.8125 75.25 -28.8125 75.25 -28.875 72.0625 C-27.8125 69.25 -27.8125 69.25 -25.25 67.875 C-24.445625 67.66875 -23.64125 67.4625 -22.8125 67.25 C-22.9053125 65.3628125 -22.9053125 65.3628125 -23 63.4375 C-22.97771115 60.91886049 -22.94752197 59.52004394 -21.8125 57.25 C-18.53282242 55.61016121 -15.44111311 56.07154362 -11.8125 56.25 C-11.8125 56.58 -11.8125 56.91 -11.8125 57.25 C-12.37839844 57.38277344 -12.94429687 57.51554688 -13.52734375 57.65234375 C-14.62755859 57.91724609 -14.62755859 57.91724609 -15.75 58.1875 C-16.84634766 58.44853516 -16.84634766 58.44853516 -17.96484375 58.71484375 C-19.81219898 59.08887569 -19.81219898 59.08887569 -20.8125 60.25 C-21.00399081 63.88194641 -21.00399081 63.88194641 -19.8125 67.25 C-17.82899015 68.01222301 -17.82899015 68.01222301 -15.5 68.625 C-11.71726339 69.82558147 -9.0961834 70.8244749 -6.8125 74.25 C-7.0625 76.5 -7.0625 76.5 -7.8125 78.25 C-11.75977588 78.42942163 -14.4105513 78.34350689 -17.8125 76.25 C-14.73250054 79.92230705 -12.5642398 80.81802365 -7.8125 81.25 C-7.420625 80.651875 -7.02875 80.05375 -6.625 79.4375 C-4.59627868 76.98904324 -2.57740524 75.77797395 0.1875 74.25 C1.68493119 72.75256881 1.51952693 71.26175761 1.75 69.1875 C1.894375 67.888125 2.03875 66.58875 2.1875 65.25 C1.28 65.930625 0.3725 66.61125 -0.5625 67.3125 C-3.8125 69.25 -3.8125 69.25 -6.1875 69 C-6.72375 68.7525 -7.26 68.505 -7.8125 68.25 C-7.6392791 63.9194776 -7.07636703 61.03174278 -4.1875 57.8125 C-0.85650088 54.81058754 1.72621878 54.49242394 6.1875 55.25 Z " fill="#627EFF" transform="translate(195.8125,80.75)"/>
<path d="M0 0 C2.875 2.3125 2.875 2.3125 5 5 C5 5.99 5 6.98 5 8 C5.99 8 6.98 8 8 8 C8.33 7.01 8.66 6.02 9 5 C11.85589393 2.73208423 13.88321343 2.01876927 17.5 1.4375 C21.14630072 2.02351262 21.62372066 2.19685175 23.875 4.8125 C27.20322259 9.80483388 27.59592451 14.13308126 27 20 C25.26133176 28.13696736 22.74759879 34.90754529 17 41 C16.525625 41.5259375 16.05125 42.051875 15.5625 42.59375 C12.85536626 45.24203301 10.57769256 46.34993802 6.875 46.5625 C3 46 3 46 0.625 44.3125 C-1 42 -1 42 -1.9375 39.4375 C-3.32751701 36.24863745 -4.89004164 35.44120022 -8 34 C-8.99 34 -9.98 34 -11 34 C-10.63594751 36.70438996 -10.31857318 37.74406383 -8.15234375 39.484375 C-7.42144531 39.90203125 -6.69054687 40.3196875 -5.9375 40.75 C-5.20402344 41.17796875 -4.47054687 41.6059375 -3.71484375 42.046875 C-2.86599609 42.51867187 -2.86599609 42.51867187 -2 43 C-6.59058867 44.53019622 -11.16121627 45.09918444 -16 45 C-19.50581281 43.21131999 -20.57259276 41.85481447 -22.3125 38.375 C-24.53769336 27.45132349 -21.99007546 18.4057068 -16.0625 9.0625 C-11.85477313 3.10776755 -7.56716441 -0.89025464 0 0 Z " fill="#718AFF" transform="translate(252,138)"/>
<path d="M0 0 C0.80050781 0.32871094 1.60101563 0.65742187 2.42578125 0.99609375 C17.7809157 7.89754609 26.88646611 19.70427125 33 35 C33.45375 36.11375 33.9075 37.2275 34.375 38.375 C35.83291587 46.83091204 34.6471338 55.26807635 31 63 C29 65 29 65 26.625 65.3125 C23.51544402 64.94231476 22.42984637 63.89831748 20 62 C17.35065178 61.28566879 17.35065178 61.28566879 15 61 C17.58705613 58.18467422 19.65499918 56.16560039 23.125 54.5 C26.41331724 52.78435622 27.40150319 51.28579901 29 48 C28.34 48 27.68 48 27 48 C26.62875 48.9590625 26.62875 48.9590625 26.25 49.9375 C25 52 25 52 22.875 52.75 C22.25625 52.8325 21.6375 52.915 21 53 C21.33 51.02 21.66 49.04 22 47 C25.65456815 46.24758891 29.31733897 45.59950296 33 45 C32.01 42.03 32.01 42.03 31 39 C30.01 39.66 29.02 40.32 28 41 C23.81069596 41.46547823 21.73588076 41.49058717 18.1875 39.125 C16.78211269 37.75976661 15.38545583 36.38545583 14 35 C14.3196875 35.56074219 14.639375 36.12148437 14.96875 36.69921875 C16.77339862 40.72549919 16.7796753 44.69196358 16 49 C13.98837153 52.43087554 11.58021267 55.20989367 8 57 C5 57.1875 5 57.1875 2 57 C0 55 0 55 -0.08984375 52.171875 C-0.03957031 51.04265625 0.01070313 49.9134375 0.0625 48.75 C0.16644257 43.49512559 -0.46473264 40.62961866 -3 36 C-2.930018 31.94104421 -2.61100089 29.79430116 -0.125 26.5625 C2 25 2 25 5 25 C3.49766428 18.3221399 3.49766428 18.3221399 -0.0625 12.625 C-2.71376718 11.15834156 -5.23394489 10.12320817 -8.0625 9.0625 C-12.27112591 7.46309671 -14.75491566 6.08197153 -17 2 C-17 0.68 -17 -0.64 -17 -2 C-34.51948353 1.03097813 -50.66184689 4.84989551 -61.6171875 20.27734375 C-65.37647724 26.19682237 -67.84870101 32.34362783 -70 39 C-70.66 38.67 -71.32 38.34 -72 38 C-68.59357476 23.95596613 -60.94397617 12.56915007 -48.75 4.6875 C-34.27755347 -3.59900938 -15.84469982 -7.12867187 0 0 Z " fill="#718AFF" transform="translate(287,126)"/>
<path d="M0 0 C3.54476289 2.31294141 4.37431737 4.80438359 5.265625 8.765625 C5.60950823 10.59085138 5.93717339 12.41919511 6.25 14.25 C6.42273438 15.18585938 6.59546875 16.12171875 6.7734375 17.0859375 C7.19635057 19.38846421 7.60462944 21.69261234 8 24 C10.37498633 21.81752206 11.88463606 19.67466123 13.41015625 16.83984375 C13.84263672 16.04642578 14.27511719 15.25300781 14.72070312 14.43554688 C15.38489258 13.19901367 15.38489258 13.19901367 16.0625 11.9375 C16.94609298 10.29909167 17.83267964 8.6622933 18.72265625 7.02734375 C19.11203369 6.30281006 19.50141113 5.57827637 19.90258789 4.83178711 C21 3 21 3 23 1 C25.8203125 0.8046875 25.8203125 0.8046875 29.125 0.875 C30.22070312 0.89304687 31.31640625 0.91109375 32.4453125 0.9296875 C33.70988281 0.96449219 33.70988281 0.96449219 35 1 C35.495 2.98 35.495 2.98 36 5 C35.01 5.33 34.02 5.66 33 6 C31.28620673 13.52844902 30.78343661 20.80121986 30.75 28.5 C30.74097656 29.37237305 30.73195312 30.24474609 30.72265625 31.14355469 C30.72845703 32.38733887 30.72845703 32.38733887 30.734375 33.65625 C30.73663086 34.39681641 30.73888672 35.13738281 30.74121094 35.90039062 C31.03510845 38.28484211 31.81888357 39.92395623 33 42 C31 44 31 44 27.3046875 44.1953125 C25.82799892 44.182009 24.35137642 44.15814835 22.875 44.125 C22.12089844 44.11597656 21.36679688 44.10695313 20.58984375 44.09765625 C18.72642746 44.0740687 16.86317407 44.03819719 15 44 C15.33 42.35 15.66 40.7 16 39 C16.66 39 17.32 39 18 39 C18.34438559 37.21042488 18.67479226 35.41815936 19 33.625 C19.2784375 32.12839844 19.2784375 32.12839844 19.5625 30.6015625 C20.10951387 26.09846614 20 21.53619896 20 17 C15.71 24.92 11.42 32.84 7 41 C5.68 41 4.36 41 3 41 C0.37173829 32.72831339 -1.99165082 24.44419541 -4 16 C-6.15626379 23.54692326 -7.04905387 31.23056782 -8 39 C-7.01 39.33 -6.02 39.66 -5 40 C-5 40.99 -5 41.98 -5 43 C-7.64458379 44.32229189 -9.67761301 44.09677194 -12.625 44.0625 C-13.62789062 44.05347656 -14.63078125 44.04445313 -15.6640625 44.03515625 C-16.43492187 44.02355469 -17.20578125 44.01195312 -18 44 C-18.33 42.68 -18.66 41.36 -19 40 C-18.36537842 39.5985376 -17.73075684 39.1970752 -17.0769043 38.78344727 C-14.61039867 36.66544754 -14.32209302 35.61803227 -13.76953125 32.46484375 C-13.60646484 31.57216797 -13.44339844 30.67949219 -13.27539062 29.75976562 C-13.12263672 28.82841797 -12.96988281 27.89707031 -12.8125 26.9375 C-12.64814453 26.03322266 -12.48378906 25.12894531 -12.31445312 24.19726562 C-11.24755349 18.15438064 -10.5255817 12.1124738 -10 6 C-10.99 5.67 -11.98 5.34 -13 5 C-12.1875 3.0625 -12.1875 3.0625 -11 1 C-7.37296974 -0.20901009 -3.75982637 -0.78660475 0 0 Z " fill="#0A51B0" transform="translate(203,274)"/>
<path d="M0 0 C4.38603125 4.06053728 5.16577317 8.68251886 6.25 14.3125 C6.42273438 15.14845703 6.59546875 15.98441406 6.7734375 16.84570312 C7.19492034 18.89457803 7.59920244 20.94697845 8 23 C8.66 23 9.32 23 10 23 C10.28721924 22.44014404 10.57443848 21.88028809 10.87036133 21.3034668 C12.17852506 18.76173339 13.49539941 16.2246131 14.8125 13.6875 C15.26431641 12.80642578 15.71613281 11.92535156 16.18164062 11.01757812 C16.62314453 10.17001953 17.06464844 9.32246094 17.51953125 8.44921875 C17.92276611 7.66893311 18.32600098 6.88864746 18.74145508 6.0847168 C19.9898501 4.0168128 21.1374279 2.53326261 23 1 C25.62890625 0.671875 25.62890625 0.671875 28.5625 0.75 C29.53316406 0.76546875 30.50382812 0.7809375 31.50390625 0.796875 C34 1 34 1 36 2 C36 2.99 36 3.98 36 5 C35.0409375 5.86625 35.0409375 5.86625 34.0625 6.75 C29.47650163 11.75290731 30.81676365 20.75365082 30.8125 27.1875 C30.79413086 28.66379883 30.79413086 28.66379883 30.77539062 30.16992188 C30.77345703 31.11802734 30.77152344 32.06613281 30.76953125 33.04296875 C30.76542236 33.89914795 30.76131348 34.75532715 30.75708008 35.63745117 C31.01836263 38.17858811 31.72178141 39.80799919 33 42 C31 44 31 44 27.3046875 44.1953125 C25.82799892 44.182009 24.35137642 44.15814835 22.875 44.125 C22.12089844 44.11597656 21.36679688 44.10695313 20.58984375 44.09765625 C18.72642746 44.0740687 16.86317407 44.03819719 15 44 C15 42.68 15 41.36 15 40 C15.99 39.67 16.98 39.34 18 39 C18.66 31.74 19.32 24.48 20 17 C17.85356989 20.79132996 15.70782887 24.58304698 13.5625 28.375 C12.95083984 29.45523437 12.33917969 30.53546875 11.70898438 31.6484375 C11.12568359 32.6796875 10.54238281 33.7109375 9.94140625 34.7734375 C9.40201416 35.72653809 8.86262207 36.67963867 8.30688477 37.66162109 C7.50783509 39.09134233 6.73247296 40.53505407 6 42 C5.01 42 4.02 42 3 42 C-0.07773682 32.73554348 -2.24846657 23.5936263 -4 14 C-6.43383621 26.43362986 -6.43383621 26.43362986 -8 39 C-7.34 39 -6.68 39 -6 39 C-6.495 41.475 -6.495 41.475 -7 44 C-10.63 44 -14.26 44 -18 44 C-18.33 42.68 -18.66 41.36 -19 40 C-18.11054687 39.22076172 -18.11054687 39.22076172 -17.203125 38.42578125 C-13.73694763 34.60929872 -13.54608861 30.16957912 -12.75 25.1875 C-12.57726562 24.21490234 -12.40453125 23.24230469 -12.2265625 22.24023438 C-10.2212295 12.32305877 -10.2212295 12.32305877 -13 3 C-8.51133104 -0.36650172 -5.43419491 -0.6900565 0 0 Z " fill="#0950B0" transform="translate(79,274)"/>
<path d="M0 0 C3.07388417 4.00941413 4.1276781 6.04110792 4.0625 11.125 C4.05347656 12.03507813 4.04445312 12.94515625 4.03515625 13.8828125 C4.02355469 14.58148438 4.01195312 15.28015625 4 16 C4.9075 16.04125 5.815 16.0825 6.75 16.125 C10 17 10 17 12.375 19.5 C14.93661367 25.01732175 14.53417409 29.78699305 13.125 35.625 C12.96060461 40.06367566 14.47288344 41.52709215 17.359375 44.71484375 C19.04627186 46.30833099 19.04627186 46.30833099 22 46 C22 53.59 22 61.18 22 69 C23.65 69.66 25.3 70.32 27 71 C27.99 71.66 28.98 72.32 30 73 C31.134375 73.103125 32.26875 73.20625 33.4375 73.3125 C37 74 37 74 39.375 76.3125 C41 79 41 79 41.4375 81.1875 C41.623125 81.785625 41.80875 82.38375 42 83 C43.65438613 83.69658363 45.32254318 84.36096883 47 85 C50.67722421 88.41456534 50.69602368 92.2123729 51 97 C50.505 98.485 50.505 98.485 50 100 C50.84175781 99.83886719 51.68351562 99.67773438 52.55078125 99.51171875 C56.14013071 98.97921051 59.56020926 98.83193886 63.1875 98.8125 C64.39792969 98.79832031 65.60835938 98.78414063 66.85546875 98.76953125 C70 99 70 99 73 101 C65.08 101.33 57.16 101.66 49 102 C49 104.31 49 106.62 49 109 C48.67 109 48.34 109 48 109 C47.90203125 108.40832031 47.8040625 107.81664062 47.703125 107.20703125 C46.74230199 102.12957861 45.7014799 98.82486256 42 95 C40.35 95.33 38.7 95.66 37 96 C37 98.64 37 101.28 37 104 C36.731875 103.401875 36.46375 102.80375 36.1875 102.1875 C35.01506533 100.02775192 33.80630718 98.64209744 32 97 C31.67 97.66 31.34 98.32 31 99 C30.67 98.01 30.34 97.02 30 96 C29.01 95.505 29.01 95.505 28 95 C28 97.64 28 100.28 28 103 C27.67 103 27.34 103 27 103 C26.67 99.7 26.34 96.4 26 93 C25.34 93 24.68 93 24 93 C23.505 89.535 23.505 89.535 23 86 C23.99 86.33 24.98 86.66 26 87 C26.495 85.515 26.495 85.515 27 84 C28.0055761 85.45449401 29.00430435 86.91372443 30 88.375 C30.556875 89.18710938 31.11375 89.99921875 31.6875 90.8359375 C33 93 33 93 33 95 C33.53625 94.67 34.0725 94.34 34.625 94 C37.72046073 92.69664811 39.66574641 92.52367806 43 93 C45.875 95.5 45.875 95.5 48 98 C48.37305087 92.1271313 48.37305087 92.1271313 46 87 C45.030625 86.38125 44.06125 85.7625 43.0625 85.125 C40 83 40 83 38.6875 79.875 C37.34294183 76.88229404 37.34294183 76.88229404 34.99609375 76.27734375 C33.41298254 75.96698093 31.82389009 75.68573383 30.23046875 75.43359375 C27.39381227 74.88215965 25.34078087 73.66119933 23 72 C23 73.65 23 75.3 23 77 C12.4559641 72.69194019 3.33446471 65.39256475 -3.75 56.5 C-6.70979282 52.88655566 -9.41147442 51.82799667 -13.859375 50.6328125 C-19.26890003 49.03364634 -22.85940674 45.53641249 -26 41 C-26.495 39.515 -26.495 39.515 -27 38 C-26.34 37.01 -25.68 36.02 -25 35 C-24.773125 35.886875 -24.54625 36.77375 -24.3125 37.6875 C-22.26539653 42.85399923 -19.43326474 45.24427859 -14.5625 47.8125 C-9.89629398 49.36790201 -6.65678218 49.55226073 -2 48 C-1.67 47.01 -1.34 46.02 -1 45 C-0.34 45.33 0.32 45.66 1 46 C-0.65 47.65 -2.3 49.3 -4 51 C-0.41708248 58.82676158 6.02827657 64.21938965 13 69 C16.12197478 67.6910428 16.12197478 67.6910428 18 65 C18.39227838 62.29127482 18.74569498 59.59248307 19.0625 56.875 C19.15337891 56.12089844 19.24425781 55.36679688 19.33789062 54.58984375 C19.56190852 52.72695812 19.78138573 50.86352748 20 49 C19.40703125 48.74476563 18.8140625 48.48953125 18.203125 48.2265625 C15.78775462 46.88183502 14.48788294 45.50785633 12.75 43.375 C12.22921875 42.74335938 11.7084375 42.11171875 11.171875 41.4609375 C10.78515625 40.97882813 10.3984375 40.49671875 10 40 C8.68 40.66 7.36 41.32 6 42 C6 41.34 6 40.68 6 40 C6.66 40 7.32 40 8 40 C8.309375 39.38125 8.61875 38.7625 8.9375 38.125 C9.625 36.75 10.3125 35.375 11 34 C11.09657872 32.2104531 11.12980468 30.41714466 11.125 28.625 C11.12757813 27.66851562 11.13015625 26.71203125 11.1328125 25.7265625 C11.01551878 23.31859146 10.68675951 21.30009932 10 19 C5.21859411 18.53123472 2.06212581 18.26978851 -2 21.0625 C-4.31677426 24.4652622 -4.76038724 26.926583 -5 31 C-1.04179141 30.43454163 1.6659053 29.19097652 5 27 C4.65355522 35.10680787 4.65355522 35.10680787 2.125 38.5625 C0 40 0 40 -3 40 C-3.226875 40.639375 -3.45375 41.27875 -3.6875 41.9375 C-5 44 -5 44 -7.25 45 C-11.1445502 45 -13.03637202 43.41225533 -16 41 C-16 40.34 -16 39.68 -16 39 C-12.7 39.33 -9.4 39.66 -6 40 C-6.62329019 36.14737093 -6.62329019 36.14737093 -8.5 34.375 C-12.13563666 32.37539984 -15.94334571 31.7367855 -20 31 C-20 30.01 -20 29.02 -20 28 C-20.12375 26.7625 -20.12375 26.7625 -20.25 25.5 C-20 23 -20 23 -18.375 21.25 C-15.59081567 19.78463983 -13.09501772 19.45789303 -10 19 C-9.82984375 18.10796875 -9.6596875 17.2159375 -9.484375 16.296875 C-9.24203125 15.12640625 -8.9996875 13.9559375 -8.75 12.75 C-8.51796875 11.58984375 -8.2859375 10.4296875 -8.046875 9.234375 C-6.91701945 5.74362727 -5.90237575 4.20405978 -3 2 C-2.01 2 -1.02 2 0 2 C0 1.34 0 0.68 0 0 Z " fill="#7089FF" transform="translate(194,118)"/>
<path d="M0 0 C2.10358381 1.54262813 2.84054159 2.68108317 4 5 C4.5147039 10.16391457 5.01718869 15.2416778 2 19.6875 C1.34 20.450625 0.68 21.21375 0 22 C0.99 21.67 1.98 21.34 3 21 C3.48210937 21.63808594 3.96421875 22.27617187 4.4609375 22.93359375 C5.09257812 23.75988281 5.72421875 24.58617187 6.375 25.4375 C7.00148437 26.26121094 7.62796875 27.08492187 8.2734375 27.93359375 C9.83753904 30.08528092 9.83753904 30.08528092 12 31 C11.93971999 33.56491456 11.85262053 36.12421757 11.75 38.6875 C11.73582031 39.40873047 11.72164062 40.12996094 11.70703125 40.87304688 C11.4822262 45.79627744 10.59292747 48.35677155 7 52 C2.38172678 50.55146412 -0.67747442 47.89198185 -4.125 44.625 C-4.64964844 44.14289063 -5.17429688 43.66078125 -5.71484375 43.1640625 C-11.24306622 38.01371853 -11.24306622 38.01371853 -13 35 C-11.88820837 31.66462511 -10.52588702 30.36292656 -8 28 C-10.2094169 30.43035859 -11.94983591 31.88291481 -15.27734375 32.25390625 C-21.91293405 31.91650335 -26.29277732 29.63799882 -31 25 C-33.31282587 21.53076119 -33.42478586 20.07794425 -33 16 C-32 14.125 -32 14.125 -30 13 C-23.45794586 12.35651926 -19.42274565 13.46054355 -14.0625 17.4375 C-13 19 -13 19 -13.3125 21.1875 C-13.539375 21.785625 -13.76625 22.38375 -14 23 C-17.94727588 23.17942163 -20.5980513 23.09350689 -24 21 C-20.92000054 24.67230705 -18.7517398 25.56802365 -14 26 C-13.608125 25.401875 -13.21625 24.80375 -12.8125 24.1875 C-10.78377868 21.73904324 -8.76490524 20.52797395 -6 19 C-4.50256881 17.50256881 -4.66797307 16.01175761 -4.4375 13.9375 C-4.293125 12.638125 -4.14875 11.33875 -4 10 C-4.9075 10.680625 -5.815 11.36125 -6.75 12.0625 C-10 14 -10 14 -12.375 13.75 C-12.91125 13.5025 -13.4475 13.255 -14 13 C-13.8267791 8.6694776 -13.26386703 5.78174278 -10.375 2.5625 C-7.04400088 -0.43941246 -4.46128122 -0.75757606 0 0 Z " fill="#FAFBFF" transform="translate(202,136)"/>
<path d="M0 0 C3.82434633 -0.62240718 7.19106587 -0.79697807 11 0 C14.21631859 2.76240266 15.95070148 6.3287035 18 10 C19.33186072 12.1525749 20.68795446 14.28880568 22.04467773 16.42578125 C24.05580008 19.6012747 26.02717161 22.80060427 28 26 C29.39948955 20.93307339 30.25716463 16.5445117 30.1875 11.25 C30.17783203 9.61804688 30.17783203 9.61804688 30.16796875 7.953125 C30.0260961 5.45880577 29.61094828 3.39895287 29 1 C30 0 30 0 32.72265625 -0.09765625 C34.37587891 -0.08025391 34.37587891 -0.08025391 36.0625 -0.0625 C37.71958984 -0.04896484 37.71958984 -0.04896484 39.41015625 -0.03515625 C40.26480469 -0.02355469 41.11945313 -0.01195312 42 0 C42.8125 1.6875 42.8125 1.6875 43 4 C42.21004639 4.71518799 41.42009277 5.43037598 40.60620117 6.16723633 C37.49970072 9.54379134 36.98008257 12.2476747 36.48828125 16.63671875 C36.38911911 17.35737015 36.28995697 18.07802155 36.18778992 18.82051086 C35.87607246 21.10738416 35.59275079 23.39657628 35.3125 25.6875 C35.01712679 27.98823858 34.71574045 30.28790001 34.40507507 32.58662415 C34.21369453 34.01321631 34.03188653 35.44113239 33.860672 36.87028503 C33.22239393 41.77760607 33.22239393 41.77760607 31 44 C28.75 44.125 28.75 44.125 26 43 C21.15157355 37.61072713 17.44082735 31.13358915 13.625 25 C13.07972656 24.12988281 12.53445313 23.25976562 11.97265625 22.36328125 C10.64527844 20.24413422 9.32113309 18.12304357 8 16 C6.3914971 17.6085029 6.66456199 19.46787647 6.46484375 21.69140625 C6.37783203 22.63564453 6.29082031 23.57988281 6.20117188 24.55273438 C6.11416016 25.54595703 6.02714844 26.53917969 5.9375 27.5625 C5.84662109 28.55958984 5.75574219 29.55667969 5.66210938 30.58398438 C5.43741186 33.05565702 5.21689649 35.52763256 5 38 C5.66 38 6.32 38 7 38 C7 39.32 7 40.64 7 42 C4.47524538 43.26237731 2.68799534 43.09856404 -0.125 43.0625 C-1.03507812 43.05347656 -1.94515625 43.04445313 -2.8828125 43.03515625 C-3.58148438 43.02355469 -4.28015625 43.01195312 -5 43 C-5.33 41.35 -5.66 39.7 -6 38 C-4.02 37.505 -4.02 37.505 -2 37 C-1.86722656 35.97519531 -1.73445313 34.95039063 -1.59765625 33.89453125 C-1.41935912 32.5338426 -1.24096877 31.17316615 -1.0625 29.8125 C-0.93198242 28.80219727 -0.93198242 28.80219727 -0.79882812 27.77148438 C-0.42708886 24.94901957 -0.03419772 22.15958935 0.5625 19.375 C1.07311032 16.60311538 1.09643101 14.00377368 1.0625 11.1875 C1.05347656 10.21167969 1.04445313 9.23585938 1.03515625 8.23046875 C1.02355469 7.49441406 1.01195312 6.75835937 1 6 C0.34 5.67 -0.32 5.34 -1 5 C-0.67 3.35 -0.34 1.7 0 0 Z " fill="#0950B0" transform="translate(277,275)"/>
<path d="M0 0 C0 1.32 0 2.64 0 4 C0.49628906 3.6390625 0.99257812 3.278125 1.50390625 2.90625 C4.9758253 0.53454059 7.48808156 -0.91323416 11.6875 -1.625 C15.88894236 -0.83227503 17.34611062 0.72166606 20 4 C22.00247142 8.00494284 21.42579595 12.33272671 20.3515625 16.5390625 C17.9684734 23.28096413 14.4530823 27.77345885 8 31 C4.04437178 31.25797575 1.40340307 31.09440189 -2 29 C-2.25015873 32.41642759 -2.25015873 32.41642759 -2 36 C-1.01 36.66 -0.02 37.32 1 38 C0.67 38.99 0.34 39.98 0 41 C-4.95 41 -9.9 41 -15 41 C-15.33 39.68 -15.66 38.36 -16 37 C-15.55914062 36.58878906 -15.11828125 36.17757812 -14.6640625 35.75390625 C-12.04830272 32.99692 -11.9291212 29.56693506 -11.375 25.9375 C-11.25020264 25.17832275 -11.12540527 24.41914551 -10.99682617 23.63696289 C-10.10964098 18.10721474 -9.44317322 12.58398257 -9 7 C-10.32 6.67 -11.64 6.34 -13 6 C-12.73828125 4.11328125 -12.73828125 4.11328125 -12 2 C-10.29296875 0.91796875 -10.29296875 0.91796875 -8.1875 0.1875 C-7.50042969 -0.06644531 -6.81335938 -0.32039063 -6.10546875 -0.58203125 C-3.73131543 -1.05333812 -2.27685106 -0.75212833 0 0 Z " fill="#074EAF" transform="translate(163,288)"/>
<path d="M0 0 C0.78375 0.04125 1.5675 0.0825 2.375 0.125 C2.045 0.785 1.715 1.445 1.375 2.125 C0.385 2.125 -0.605 2.125 -1.625 2.125 C-2.285 4.105 -2.945 6.085 -3.625 8.125 C0.00293998 6.25933512 0.00293998 6.25933512 2.375 3.125 C3.035 3.125 3.695 3.125 4.375 3.125 C3.44629064 6.24884058 2.84312241 7.799915 0.125 9.6875 C-0.7825 10.161875 -1.69 10.63625 -2.625 11.125 C-4.63080329 12.44958708 -6.63215862 13.7809907 -8.625 15.125 C-7.490625 15.599375 -6.35625 16.07375 -5.1875 16.5625 C-1.625 18.125 -1.625 18.125 -0.625 19.125 C1.78982413 19.62559916 1.78982413 19.62559916 4.375 19.125 C8.0657307 15.02418811 8.50494344 9.39651913 9.375 4.125 C9.705 4.125 10.035 4.125 10.375 4.125 C10.58030009 10.22697492 10.51079515 15.84528311 8.91015625 21.76171875 C7.26652431 29.02009337 6.81043715 32.44841885 10.8125 39 C11.17867432 39.60078369 11.54484863 40.20156738 11.92211914 40.82055664 C17.03051659 49.02614561 22.51368429 55.83828839 30.3203125 61.60546875 C37.0502785 66.58257288 37.0502785 66.58257288 37.875 70.5 C37.20531614 74.01584024 35.89930638 76.88584893 34.375 80.125 C33.715 80.125 33.055 80.125 32.375 80.125 C32.436875 80.90875 32.49875 81.6925 32.5625 82.5 C32.500625 83.36625 32.43875 84.2325 32.375 85.125 C28.61465212 87.63189858 25.7252199 87.86468386 21.375 87.125 C18.7294374 86.04345541 16.27030456 84.79574985 13.76953125 83.4140625 C10.19525476 81.47080153 10.19525476 81.47080153 6.375 80.125 C4.32046662 81.15743673 4.32046662 81.15743673 2.5625 82.9375 C-1.57216066 86.36605163 -4.26509069 87.125 -9.625 87.125 C-11.625 85.125 -11.625 85.125 -11.6875 82.0625 C-10.93215777 77.51132401 -8.11566563 74.49196051 -5.21875 71.04296875 C-3.57269051 69.2101081 -3.57269051 69.2101081 -2.625 67.125 C-3.70337307 64.72730947 -4.82820217 62.44018011 -6.0625 60.125 C-9.625 53.36642857 -9.625 53.36642857 -9.625 51.125 C-10.26824219 51.58390625 -10.91148437 52.0428125 -11.57421875 52.515625 C-20.65992743 58.68509337 -29.34200624 62.09558328 -40.375 62.5 C-46.27147848 62.76501027 -51.23587046 64.03504619 -56.75 66 C-57.8342627 66.38551025 -57.8342627 66.38551025 -58.94042969 66.77880859 C-62.55141239 68.13399318 -65.80284045 69.45212344 -68.625 72.125 C-69.35465366 74.68782742 -69.35465366 74.68782742 -69.625 77.125 C-70.625 78.125 -70.625 78.125 -72.47265625 78.22265625 C-74.5234375 78.19010417 -76.57421875 78.15755208 -78.625 78.125 C-78.810625 78.7025 -78.99625 79.28 -79.1875 79.875 C-81.27533677 83.14291842 -84.01702418 84.77007346 -87.625 86.125 C-90.5625 85.875 -90.5625 85.875 -92.625 85.125 C-92.625 84.795 -92.625 84.465 -92.625 84.125 C-92.02171875 83.95484375 -91.4184375 83.7846875 -90.796875 83.609375 C-85.69587064 82.15401917 -85.69587064 82.15401917 -81.5625 79 C-78.57689187 76.11070181 -75.70110084 76.39674006 -71.625 76.125 C-71.625 75.135 -71.625 74.145 -71.625 73.125 C-72.615 74.115 -72.615 74.115 -73.625 75.125 C-79.19642857 68.83928571 -79.19642857 68.83928571 -79.625 65.125 C-77.625 67.125 -75.625 69.125 -73.625 71.125 C-72.67625 70.63 -71.7275 70.135 -70.75 69.625 C-67.625 68.125 -67.625 68.125 -65.625 68.125 C-66.140625 67.031875 -66.65625 65.93875 -67.1875 64.8125 C-68.625 61.125 -68.625 61.125 -67.625 58.125 C-64.625 63.875 -64.625 63.875 -64.625 66.125 C-63.37009766 65.61839844 -63.37009766 65.61839844 -62.08984375 65.1015625 C-53.24877075 61.71395313 -45.06071801 60.01042452 -35.625 59.125 C-35.49738281 58.51527344 -35.36976563 57.90554687 -35.23828125 57.27734375 C-34.38076416 54.26784111 -32.64669733 52.49327402 -30.625 50.125 C-30.00625 49.2175 -29.3875 48.31 -28.75 47.375 C-26.625 45.125 -26.625 45.125 -23.5 44.625 C-22.55125 44.46 -21.6025 44.295 -20.625 44.125 C-19.36354232 41.76313861 -19.36354232 41.76313861 -18.625 39.125 C-17.1875 37.3125 -17.1875 37.3125 -15.625 36.125 C-14.635 36.125 -13.645 36.125 -12.625 36.125 C-12.2228125 37.45337891 -12.2228125 37.45337891 -11.8125 38.80859375 C-8.57920699 49.02962855 -4.36393461 58.51778022 0.375 68.125 C-0.10710937 68.65609375 -0.58921875 69.1871875 -1.0859375 69.734375 C-2.03339844 70.79398438 -2.03339844 70.79398438 -3 71.875 C-3.62648438 72.57109375 -4.25296875 73.2671875 -4.8984375 73.984375 C-7.92552587 77.73741669 -8.89336099 80.29450221 -8.625 85.125 C-4.70202154 84.56159352 -2.13419644 83.42409621 1.125 81.1875 C1.90359375 80.66285156 2.6821875 80.13820313 3.484375 79.59765625 C5.49038653 78.25323573 5.49038653 78.25323573 6.375 76.125 C9.92538751 77.83268079 13.16898379 79.86698184 16.47265625 82.00390625 C19.73366018 83.92568885 22.36238985 84.24112478 26.0625 84.1875 C26.87074219 84.17847656 27.67898438 84.16945313 28.51171875 84.16015625 C29.12660156 84.14855469 29.74148438 84.13695312 30.375 84.125 C30.08748893 80.91077367 29.27582842 80.03155283 26.87109375 77.765625 C25.86175781 76.97671875 24.85242188 76.1878125 23.8125 75.375 C22.80058594 74.57578125 21.78867187 73.7765625 20.74609375 72.953125 C19.96363281 72.34984375 19.18117188 71.7465625 18.375 71.125 C18.705 70.465 19.035 69.805 19.375 69.125 C20.13425781 69.69089844 20.89351563 70.25679688 21.67578125 70.83984375 C23.16658203 71.94005859 23.16658203 71.94005859 24.6875 73.0625 C26.16669922 74.15884766 26.16669922 74.15884766 27.67578125 75.27734375 C30.29271863 77.25030656 30.29271863 77.25030656 33.375 78.125 C32.1225381 73.39347726 29.56121888 71.33842236 25.8359375 68.45703125 C25.11277344 67.79767578 25.11277344 67.79767578 24.375 67.125 C24.375 66.465 24.375 65.805 24.375 65.125 C26.6208579 66.16771974 28.48478043 67.21149367 30.4375 68.75 C32.3867832 70.4143735 32.3867832 70.4143735 35.375 70.125 C30.90324538 64.62579277 30.90324538 64.62579277 25.4375 60.1875 C13.18761651 51.93757847 6.40068752 36.43631389 -0.1171875 23.63671875 C-1.5280366 20.88061806 -1.5280366 20.88061806 -4.625 19.125 C-9.95968429 18.74035105 -9.95968429 18.74035105 -14.625 21.125 C-12.50380087 16.11125661 -9.131805 12.12953667 -4.625 9.125 C-4.58333998 6.7920386 -4.58333998 4.4579614 -4.625 2.125 C-2.625 0.125 -2.625 0.125 0 0 Z " fill="#6B86FF" transform="translate(311.625,170.875)"/>
<path d="M0 0 C2.96560193 0.45128725 4.98326868 0.09846716 7.875 -0.5625 C8.205 -0.2325 8.535 0.0975 8.875 0.4375 C8.80864253 2.04516053 8.66939414 3.64991209 8.5 5.25 C8.06653597 9.53960503 7.66464173 13.82785015 7.3125 18.125 C7.22871094 19.13949219 7.14492187 20.15398437 7.05859375 21.19921875 C6.96771484 22.30716797 6.96771484 22.30716797 6.875 23.4375 C7.865 23.4375 8.855 23.4375 9.875 23.4375 C9.8125 25.1875 9.8125 25.1875 8.875 27.4375 C6.03141044 29.71985478 3.26329667 31.47502153 -0.4375 31.375 C-2.125 30.4375 -2.125 30.4375 -4.125 27.4375 C-4.62128906 27.73785156 -5.11757812 28.03820312 -5.62890625 28.34765625 C-9.281753 30.39241866 -11.61313157 31.42896886 -15.875 31.5 C-19.96843013 30.16176323 -21.16187368 29.28522759 -23.125 25.4375 C-24.3583852 18.87495988 -22.96006303 13.47402531 -19.7421875 7.7109375 C-14.37421384 0.16465569 -9.01146342 -1.62206341 0 0 Z " fill="#0A51B0" transform="translate(138.125,287.5625)"/>
<path d="M0 0 C2.99807714 0.32629521 5.13964886 -0.0123083 8.05078125 -0.66796875 C8.38078125 -0.33796875 8.71078125 -0.00796875 9.05078125 0.33203125 C8.8819842 8.09669544 7.59057018 15.73773245 6.05078125 23.33203125 C7.37078125 23.33203125 8.69078125 23.33203125 10.05078125 23.33203125 C9.98828125 25.08203125 9.98828125 25.08203125 9.05078125 27.33203125 C6.12680514 29.67890681 3.4171408 31.47217069 -0.38671875 31.08203125 C-0.90234375 30.83453125 -1.41796875 30.58703125 -1.94921875 30.33203125 C-2.27921875 29.01203125 -2.60921875 27.69203125 -2.94921875 26.33203125 C-3.52929688 26.69296875 -4.109375 27.05390625 -4.70703125 27.42578125 C-13.01943944 32.36384552 -13.01943944 32.36384552 -17.94921875 31.33203125 C-21.32996746 28.68225523 -22.67922138 26.46886761 -23.22265625 22.16796875 C-23.54758548 14.29468362 -21.38499814 9.33503837 -16.29296875 3.40234375 C-11.1315978 -1.3434931 -6.71442731 -0.98907133 0 0 Z " fill="#0850AF" transform="translate(340.94921875,287.66796875)"/>
<path d="M0 0 C0 2.64 0 5.28 0 8 C2.31 8 4.62 8 7 8 C7.33 8.66 7.66 9.32 8 10 C9.03125 9.505 10.0625 9.01 11.125 8.5 C14.5293798 7.03307212 17.26385811 6.64417696 21 7 C21.495 7.495 21.495 7.495 22 8 C21.83120295 15.76466419 20.53978893 23.4057012 19 31 C20.32 31 21.64 31 23 31 C22.6362558 33.54620938 22.42033309 34.68180393 20.328125 36.265625 C13.20918367 39.6377551 13.20918367 39.6377551 9 39 C8.505 38.505 8.505 38.505 8 38 C8.18851294 30.2709693 9.63552448 22.59072305 11 15 C9.68 14.67 8.36 14.34 7 14 C7 13.34 7 12.68 7 12 C4.36 12 1.72 12 -1 12 C-1.33 18.27 -1.66 24.54 -2 31 C0.64 31.33 3.28 31.66 6 32 C6 32.99 6 33.98 6 35 C0.48060879 38.28814795 -3.54323472 39.7660569 -10 39 C-12.24734754 37.39034375 -12.91174341 36.49665962 -13.3984375 33.7578125 C-13.33115036 26.19922378 -11.94745438 19.29136193 -10 12 C-11.65 12 -13.3 12 -15 12 C-14.1875 10.0625 -14.1875 10.0625 -13 8 C-12.01 7.67 -11.02 7.34 -10 7 C-9.31867549 5.33927151 -8.65257873 3.672233 -8 2 C-4.77208445 -0.1519437 -3.71599191 -0.20086443 0 0 Z " fill="#0951B0" transform="translate(368,280)"/>
<path d="M0 0 C3.89106932 2.65300181 6.23023409 5.25188231 7.16796875 9.984375 C7.55870102 16.10936727 5.61990823 20.21207779 1.75 24.875 C-3.22811187 29.48885978 -7.25955966 31.36488001 -14 31.1875 C-17.58869577 30.68907003 -19.59389601 29.2781417 -22.25 26.875 C-25.2679494 22.44867422 -26.1591764 18.14618 -25.25 12.875 C-22.98135104 6.67146273 -18.6616296 3.26314072 -13.375 -0.4375 C-8.67425357 -1.95832973 -4.55839342 -1.57790541 0 0 Z " fill="#0850AF" transform="translate(418.25,288.125)"/>
<path d="M0 0 C2.875 2.3125 2.875 2.3125 5 5 C5 5.99 5 6.98 5 8 C5.99 8 6.98 8 8 8 C8.33 7.01 8.66 6.02 9 5 C12.92146237 1.88589753 16.06310873 1.44110665 21 2 C21.66 2.99 22.32 3.98 23 5 C22.01 5 21.02 5 20 5 C20.04640625 5.70125 20.0928125 6.4025 20.140625 7.125 C20.40212848 13.99880578 19.55818602 18.10675441 16 24 C13.03 23.67 10.06 23.34 7 23 C8.98 25.97 8.98 25.97 11 29 C7.33134759 31.44576827 5.32799657 31.23607254 1 31 C0.34 30.67 -0.32 30.34 -1 30 C-1.4360464 24.00436199 -0.51044138 20.47594149 2.10546875 15.10546875 C3.84737797 11.00551648 3.27757777 7.15212776 2 3 C0.68 2.67 -0.64 2.34 -2 2 C-1.88140625 2.54527344 -1.7628125 3.09054688 -1.640625 3.65234375 C-0.52576736 10.17426095 -1.84004668 14.26326071 -5 20 C-7.31 19.34 -9.62 18.68 -12 18 C-11.46375 18.7425 -10.9275 19.485 -10.375 20.25 C-9 23 -9 23 -9.5625 25.1875 C-11.26624283 27.33569749 -12.40828286 28.11141127 -15 29 C-16.66619446 29.0396713 -18.33391013 29.04384447 -20 29 C-20.66 29.33 -21.32 29.66 -22 30 C-23.07718248 21.07477377 -19.64900983 14.36994195 -15 7 C-10.65691012 2.11836698 -6.66176103 -0.78373659 0 0 Z " fill="#5674FF" transform="translate(252,138)"/>
<path d="M0 0 C2.875 1.875 2.875 1.875 5 5 C6.08692257 11.43189234 4.68045031 17.78833545 3 24 C4.32 24 5.64 24 7 24 C6.6362558 26.54620938 6.42033309 27.68180393 4.328125 29.265625 C-2.79081633 32.6377551 -2.79081633 32.6377551 -7 32 C-7.33 31.67 -7.66 31.34 -8 31 C-7.93534675 29.41305659 -7.79783033 27.8288284 -7.625 26.25 C-7.52574219 25.34121094 -7.42648437 24.43242187 -7.32421875 23.49609375 C-7 21 -7 21 -6.4375 18.3125 C-5.84741056 15.19345582 -5.93793536 12.1652968 -6 9 C-7.65 9 -9.3 9 -11 9 C-13.58603315 13.19559735 -13.68728489 17.81540144 -14.12304688 22.59960938 C-14.43390429 25.41973027 -14.69490936 27.56326676 -16.33984375 29.91796875 C-19.05344164 31.68659608 -21.8292108 31.76512673 -25 32 C-26 31 -26 31 -26.1875 28.125 C-26.14352914 23.86862122 -25.29518486 19.8058266 -24.4375 15.6484375 C-24.00749139 13.04534965 -23.9239658 10.63268411 -24 8 C-24.99 7.67 -25.98 7.34 -27 7 C-26.66411682 4.48087612 -26.42645046 3.32803881 -24.375 1.75 C-21.11186797 0.71953725 -18.39684622 0.6854772 -15 1 C-14.34 1.99 -13.68 2.98 -13 4 C-11.96875 3.34 -10.9375 2.68 -9.875 2 C-6.40583128 0.0485926 -4.02849404 -0.78818362 0 0 Z " fill="#0B52B0" transform="translate(454,287)"/>
<path d="M0 0 C3.87512291 1.58247051 5.30419305 5.13190238 6.9609375 8.80078125 C8.59047125 13.71929412 9.78562357 18.75809357 10.9609375 23.80078125 C13.45087897 20.06586905 14.11562329 18.34913689 14.1484375 13.92578125 C14.16970703 12.63027344 14.16970703 12.63027344 14.19140625 11.30859375 C13.94807621 8.66083295 13.19092184 7.1213185 11.9609375 4.80078125 C12.3359375 2.55078125 12.3359375 2.55078125 12.9609375 0.80078125 C14.6109375 0.47078125 16.2609375 0.14078125 17.9609375 -0.19921875 C21.32771235 3.67390483 21.35402305 6.25409305 21.1796875 11.22265625 C20.31085807 21.46243168 15.72055974 31.90130582 7.9609375 38.80078125 C3.25220499 42.16273645 -1.26012247 43.49004966 -7.046875 43.1796875 C-9.0390625 42.80078125 -9.0390625 42.80078125 -11.6640625 41.23828125 C-13.59574339 37.81393786 -12.90161014 35.53848767 -12.0390625 31.80078125 C-9.6640625 31.17578125 -9.6640625 31.17578125 -7.0390625 30.80078125 C-4.67953156 33.16031219 -4.54764837 34.57973742 -4.0390625 37.80078125 C-1.17181564 37.22733188 -0.177611 36.93932975 1.9609375 34.80078125 C2.80190679 28.59863274 1.53252377 23.72954782 -0.6640625 17.92578125 C-0.89931641 17.27134033 -1.13457031 16.61689941 -1.37695312 15.94262695 C-2.8351938 12.34504278 -3.89222778 10.88973951 -7.25 8.85546875 C-8.17039063 8.50742187 -9.09078125 8.159375 -10.0390625 7.80078125 C-8.52329469 3.55663137 -4.80121817 -0.46908453 0 0 Z " fill="#0950B0" transform="translate(248.0390625,287.19921875)"/>
<path d="M0 0 C12.18016482 0.29641994 21.99732099 4.9532039 31 13 C31.62648438 13.54527344 32.25296875 14.09054688 32.8984375 14.65234375 C39.46680974 20.74744899 44.09251468 28.22556752 46 37 C44.19575137 39.30542881 42.93062038 40.02413204 40.125 41 C37 41 37 41 34.6875 39.0625 C34.28917969 38.58941406 33.89085937 38.11632812 33.48046875 37.62890625 C31.98637627 35.89135189 31.98637627 35.89135189 29.86328125 34.33984375 C23.7996597 29.6192392 21.45826506 25.29672901 19.265625 17.953125 C17.39291308 13.58346385 14.69121317 11.76335914 10.4296875 9.83984375 C9.58664062 9.54207031 8.74359375 9.24429688 7.875 8.9375 C4.57922163 7.77045386 2.10915954 6.87424683 0 4 C0 2.68 0 1.36 0 0 Z " fill="#FBFCFF" transform="translate(272,125)"/>
<path d="M0 0 C3.875 3.75 3.875 3.75 5 6 C6.99571323 6.67939174 8.99594773 7.34561559 11 8 C11.66 8.66 12.32 9.32 13 10 C13.33 8.68 13.66 7.36 14 6 C15.65 5.67 17.3 5.34 19 5 C23.6717314 9.7946717 24.84528358 13.5132107 26 20 C26.66152556 22.3347961 27.32741333 24.66836622 28 27 C28.35371498 28.66246041 28.69595322 30.32774271 29 32 C26.03 33.32 23.06 34.64 20 36 C19.38125 35.01 18.7625 34.02 18.125 33 C17.42375 32.01 16.7225 31.02 16 30 C15.34 30 14.68 30 14 30 C13.67 29.01 13.34 28.02 13 27 C11.35008418 26.29289322 9.6792238 25.63437344 8 25 C4.6875 23 4.6875 23 2 21 C2 20.34 2 19.68 2 19 C-0.475 18.01 -0.475 18.01 -3 17 C-2.36934845 11.2190275 -1.34844868 5.6556294 0 0 Z " fill="#7991FF" transform="translate(217,207)"/>
<path d="M0 0 C0.00257813 0.88558594 0.00515625 1.77117187 0.0078125 2.68359375 C0.65461943 23.40297586 9.84675047 41.28477446 24.12890625 56.0234375 C26 58 26 58 26 59 C17.08139535 59.45348837 17.08139535 59.45348837 13 56 C0.84409547 43.3517044 -8.44919766 23.07006939 -8.6640625 5.64453125 C-8 3 -8 3 -5.6484375 1.13671875 C-3 0 -3 0 0 0 Z " fill="#F9FAFF" transform="translate(190,196)"/>
<path d="M0 0 C0.78375 0.04125 1.5675 0.0825 2.375 0.125 C2.045 0.785 1.715 1.445 1.375 2.125 C0.385 2.125 -0.605 2.125 -1.625 2.125 C-2.285 4.105 -2.945 6.085 -3.625 8.125 C0.00293998 6.25933512 0.00293998 6.25933512 2.375 3.125 C3.035 3.125 3.695 3.125 4.375 3.125 C3.44629064 6.24884058 2.84312241 7.799915 0.125 9.6875 C-0.7825 10.161875 -1.69 10.63625 -2.625 11.125 C-4.63080329 12.44958708 -6.63215862 13.7809907 -8.625 15.125 C-7.490625 15.599375 -6.35625 16.07375 -5.1875 16.5625 C-1.625 18.125 -1.625 18.125 -0.625 19.125 C1.78982413 19.62559916 1.78982413 19.62559916 4.375 19.125 C8.0657307 15.02418811 8.50494344 9.39651913 9.375 4.125 C9.705 4.125 10.035 4.125 10.375 4.125 C10.58030009 10.22697492 10.51079515 15.84528311 8.91015625 21.76171875 C7.26652431 29.02009337 6.81043715 32.44841885 10.8125 39 C11.17867432 39.60078369 11.54484863 40.20156738 11.92211914 40.82055664 C17.03051659 49.02614561 22.51368429 55.83828839 30.3203125 61.60546875 C37.0502785 66.58257288 37.0502785 66.58257288 37.875 70.5 C37.20531614 74.01584024 35.89930638 76.88584893 34.375 80.125 C33.715 80.125 33.055 80.125 32.375 80.125 C32.436875 80.90875 32.49875 81.6925 32.5625 82.5 C32.500625 83.36625 32.43875 84.2325 32.375 85.125 C28.61465212 87.63189858 25.7252199 87.86468386 21.375 87.125 C18.7294374 86.04345541 16.27030456 84.79574985 13.76953125 83.4140625 C10.19525476 81.47080153 10.19525476 81.47080153 6.375 80.125 C4.32046662 81.15743673 4.32046662 81.15743673 2.5625 82.9375 C-1.57216066 86.36605163 -4.26509069 87.125 -9.625 87.125 C-11.625 85.125 -11.625 85.125 -11.6875 82.0625 C-10.93215777 77.51132401 -8.11566563 74.49196051 -5.21875 71.04296875 C-3.57269051 69.2101081 -3.57269051 69.2101081 -2.625 67.125 C-3.77750516 64.8245093 -5.13580643 62.69485017 -6.49609375 60.51171875 C-7.76013765 57.83929376 -7.83687682 56.044766 -7.625 53.125 C-5.63658588 56.10762118 -4.08828268 59.10140675 -2.5 62.3125 C-1.69175781 63.94251953 -1.69175781 63.94251953 -0.8671875 65.60546875 C-0.45726562 66.43691406 -0.04734375 67.26835937 0.375 68.125 C-0.34816406 68.92164063 -0.34816406 68.92164063 -1.0859375 69.734375 C-1.71757812 70.44078125 -2.34921875 71.1471875 -3 71.875 C-3.62648438 72.57109375 -4.25296875 73.2671875 -4.8984375 73.984375 C-7.92552587 77.73741669 -8.89336099 80.29450221 -8.625 85.125 C-4.70202154 84.56159352 -2.13419644 83.42409621 1.125 81.1875 C1.90359375 80.66285156 2.6821875 80.13820313 3.484375 79.59765625 C5.49038653 78.25323573 5.49038653 78.25323573 6.375 76.125 C9.92538751 77.83268079 13.16898379 79.86698184 16.47265625 82.00390625 C19.73366018 83.92568885 22.36238985 84.24112478 26.0625 84.1875 C26.87074219 84.17847656 27.67898438 84.16945313 28.51171875 84.16015625 C29.12660156 84.14855469 29.74148438 84.13695312 30.375 84.125 C30.08748893 80.91077367 29.27582842 80.03155283 26.87109375 77.765625 C25.35708984 76.58226562 25.35708984 76.58226562 23.8125 75.375 C22.80058594 74.57578125 21.78867187 73.7765625 20.74609375 72.953125 C19.96363281 72.34984375 19.18117188 71.7465625 18.375 71.125 C18.705 70.465 19.035 69.805 19.375 69.125 C20.13425781 69.69089844 20.89351563 70.25679688 21.67578125 70.83984375 C23.16658203 71.94005859 23.16658203 71.94005859 24.6875 73.0625 C26.16669922 74.15884766 26.16669922 74.15884766 27.67578125 75.27734375 C30.29271863 77.25030656 30.29271863 77.25030656 33.375 78.125 C32.1225381 73.39347726 29.56121888 71.33842236 25.8359375 68.45703125 C25.35382813 68.01746094 24.87171875 67.57789063 24.375 67.125 C24.375 66.465 24.375 65.805 24.375 65.125 C26.6208579 66.16771974 28.48478043 67.21149367 30.4375 68.75 C32.3867832 70.4143735 32.3867832 70.4143735 35.375 70.125 C30.90324538 64.62579277 30.90324538 64.62579277 25.4375 60.1875 C13.18761651 51.93757847 6.40068752 36.43631389 -0.1171875 23.63671875 C-1.5280366 20.88061806 -1.5280366 20.88061806 -4.625 19.125 C-9.95968429 18.74035105 -9.95968429 18.74035105 -14.625 21.125 C-12.50380087 16.11125661 -9.131805 12.12953667 -4.625 9.125 C-4.58333998 6.7920386 -4.58333998 4.4579614 -4.625 2.125 C-2.625 0.125 -2.625 0.125 0 0 Z " fill="#6D87FF" transform="translate(311.625,170.875)"/>
<path d="M0 0 C0.33 0 0.66 0 1 0 C1.226875 0.886875 1.45375 1.77375 1.6875 2.6875 C3.73460347 7.85399923 6.56673526 10.24427859 11.4375 12.8125 C16.10370602 14.36790201 19.34321782 14.55226073 24 13 C24.33 12.01 24.66 11.02 25 10 C25.66 10.33 26.32 10.66 27 11 C25.35 12.65 23.7 14.3 22 16 C25.58291752 23.82676158 32.02827657 29.21938965 39 34 C42.12197478 32.6910428 42.12197478 32.6910428 44 30 C44.23274209 27.12089412 44.41972757 24.25853505 44.5625 21.375 C44.62727539 20.17230469 44.62727539 20.17230469 44.69335938 18.9453125 C44.79951457 16.9637489 44.90026855 14.98189729 45 13 C45.66 13 46.32 13 47 13 C47.33 12.34 47.66 11.68 48 11 C48 18.59 48 26.18 48 34 C49.65 34.66 51.3 35.32 53 36 C53.99 36.66 54.98 37.32 56 38 C57.134375 38.103125 58.26875 38.20625 59.4375 38.3125 C63 39 63 39 65.375 41.3125 C67 44 67 44 67.4375 46.1875 C67.7159375 47.0846875 67.7159375 47.0846875 68 48 C69.65438613 48.69658363 71.32254318 49.36096883 73 50 C76.67722421 53.41456534 76.69602368 57.2123729 77 62 C76.67 62.99 76.34 63.98 76 65 C76.84175781 64.83886719 77.68351562 64.67773438 78.55078125 64.51171875 C82.14013071 63.97921051 85.56020926 63.83193886 89.1875 63.8125 C90.39792969 63.79832031 91.60835938 63.78414062 92.85546875 63.76953125 C96 64 96 64 99 66 C91.08 66.33 83.16 66.66 75 67 C75 69.31 75 71.62 75 74 C74.67 74 74.34 74 74 74 C73.90203125 73.40832031 73.8040625 72.81664062 73.703125 72.20703125 C72.74230199 67.12957861 71.7014799 63.82486256 68 60 C66.35 60.33 64.7 60.66 63 61 C63 63.64 63 66.28 63 69 C62.731875 68.401875 62.46375 67.80375 62.1875 67.1875 C61.01506533 65.02775192 59.80630718 63.64209744 58 62 C57.505 62.99 57.505 62.99 57 64 C56.67 63.01 56.34 62.02 56 61 C55.01 60.505 55.01 60.505 54 60 C54 62.64 54 65.28 54 68 C53.67 68 53.34 68 53 68 C52.67 64.7 52.34 61.4 52 58 C51.34 58 50.68 58 50 58 C49.505 54.535 49.505 54.535 49 51 C49.99 51.33 50.98 51.66 52 52 C52.33 51.01 52.66 50.02 53 49 C54.0055761 50.45449401 55.00430435 51.91372443 56 53.375 C56.556875 54.18710938 57.11375 54.99921875 57.6875 55.8359375 C59 58 59 58 59 60 C59.53625 59.67 60.0725 59.34 60.625 59 C63.72046073 57.69664811 65.66574641 57.52367806 69 58 C71.875 60.5 71.875 60.5 74 63 C74.37305087 57.1271313 74.37305087 57.1271313 72 52 C71.030625 51.38125 70.06125 50.7625 69.0625 50.125 C66 48 66 48 64.6875 44.875 C63.34294183 41.88229404 63.34294183 41.88229404 60.99609375 41.27734375 C59.41298254 40.96698093 57.82389009 40.68573383 56.23046875 40.43359375 C53.39381227 39.88215965 51.34078087 38.66119933 49 37 C49 38.65 49 40.3 49 42 C38.4559641 37.69194019 29.33446471 30.39256475 22.25 21.5 C19.29020718 17.88655566 16.58852558 16.82799667 12.140625 15.6328125 C6.73109997 14.03364634 3.14059326 10.53641249 0 6 C-1 3 -1 3 0 0 Z " fill="#6782FF" transform="translate(168,153)"/>
<path d="M0 0 C3.1875 1.5625 3.1875 1.5625 5 4 C5.8125 7.75 5.8125 7.75 6 11 C5.44183594 10.84144531 4.88367188 10.68289062 4.30859375 10.51953125 C-0.9117853 9.34472513 -6.11969643 9.03984499 -10.9375 11.5 C-12.91419636 13.89599558 -13.48113107 15.19048325 -14.375 18.0625 C-15.53551136 21.70596591 -15.53551136 21.70596591 -17.703125 23.078125 C-19.45765 23.74855325 -21.22822125 24.37659637 -23 25 C-23.33 25.99 -23.66 26.98 -24 28 C-28.33671225 26.8172603 -31.33398414 25.73242221 -34 22 C-33.9375 19.375 -33.9375 19.375 -33 17 C-29.10748944 14.40499296 -27.4869469 15.13409797 -23 16 C-21.66082739 16.30903983 -20.32346746 16.62942911 -19 17 C-19.33 16.34 -19.66 15.68 -20 15 C-20.67506516 9.14943527 -20.67506516 9.14943527 -18.98828125 6.27734375 C-13.398998 -0.55400244 -8.38225022 -0.89365421 0 0 Z " fill="#F9FAFF" transform="translate(205,83)"/>
<path d="M0 0 C0.14695313 0.58265625 0.29390625 1.1653125 0.4453125 1.765625 C2.99343977 11.07946949 6.97400966 19.3963768 12.6875 27.1875 C15.88985318 31.55885379 17.67248009 35.76577864 19 41 C15.78410155 41.37106521 14.44315932 41.35096925 11.859375 39.3046875 C4.15399779 30.42923449 -5.78518213 18.85081593 -7.4375 6.8125 C-6.7261898 2.23979154 -4.66835829 0 0 0 Z " fill="#F9FAFF" transform="translate(170,193)"/>
<path d="M0 0 C2.96175123 0.61277612 4.38058783 1.25372522 7 3 C8.134375 3.061875 9.26875 3.12375 10.4375 3.1875 C11.613125 3.455625 12.78875 3.72375 14 4 C16.0625 7.3125 16.0625 7.3125 16.96484375 9.2265625 C18.60711516 12.04011427 21.29199521 13.29277959 24 15 C26.58629613 18.40920854 26.15980561 21.84505405 26 26 C25.34 26.33 24.68 26.66 24 27 C23.71125 26.360625 23.4225 25.72125 23.125 25.0625 C22.17176549 22.84793921 22.17176549 22.84793921 20 22 C16.43607185 21.8450466 13.42743998 22.06524364 10 23 C0 7.33333333 0 7.33333333 0 0 Z " fill="#FBFBFF" transform="translate(217,190)"/>
<path d="M0 0 C0.86882812 0.01546875 1.73765625 0.0309375 2.6328125 0.046875 C4.875 0.25 4.875 0.25 6.875 1.25 C6.39151523 5.88478506 4.62683728 8.12018236 1.5 11.5 C0.70851562 12.37140625 -0.08296875 13.2428125 -0.8984375 14.140625 C-3.125 16.25 -3.125 16.25 -6.125 17.25 C-5.795 19.23 -5.465 21.21 -5.125 23.25 C-7.435 23.58 -9.745 23.91 -12.125 24.25 C-12.186875 23.321875 -12.186875 23.321875 -12.25 22.375 C-12.53875 21.67375 -12.8275 20.9725 -13.125 20.25 C-16.12115946 18.9454344 -16.12115946 18.9454344 -19.125 18.25 C-19.125 16.93 -19.125 15.61 -19.125 14.25 C-18.031875 14.105625 -16.93875 13.96125 -15.8125 13.8125 C-13.83090739 13.36355615 -13.83090739 13.36355615 -12.125 12.25 C-11.02509029 9.99821634 -10.45377683 7.88792011 -9.92578125 5.44140625 C-8.17113482 0.6396665 -4.75208565 -0.1418533 0 0 Z " fill="#FBFBFF" transform="translate(202.125,93.75)"/>
<path d="M0 0 C4.59847182 2.16398674 8.20844998 6.35993152 10.125 11 C10.84849249 16.19165487 11.27751827 21.25849985 8 25.625 C4.87339933 28.20784403 3.14624136 28.90860815 -0.875 29 C-1.205 28.67 -1.535 28.34 -1.875 28 C-1.86585087 24.76120845 -1.74166024 21.53316614 -1.6171875 18.296875 C-1.90236836 14.65001671 -2.89665078 13.00831453 -4.875 10 C-5.49630178 3.99408284 -5.49630178 3.99408284 -3.625 1 C-1.875 0 -1.875 0 0 0 Z " fill="#FCFCFF" transform="translate(290.875,153)"/>
<path d="M0 0 C2.60391919 1.05286674 3.88473856 2.05173288 6 4 C6 4.99 6 5.98 6 7 C3.43488754 9.56511246 1.34211929 9.72368132 -2.125 10.4375 C-4.22082328 10.90475673 -4.22082328 10.90475673 -6 13 C-6.28231383 15.7281956 -6.28231383 15.7281956 -6.1875 18.8125 C-6.18105469 19.85019531 -6.17460937 20.88789063 -6.16796875 21.95703125 C-6.01429286 24.74106653 -5.62662052 27.28798637 -5 30 C-10.79530713 24.74723226 -14.20079279 16.5566703 -16 9 C-15.91829937 5.56857371 -15.27377121 4.32675919 -13.0625 1.6875 C-8.68638955 -0.72382616 -4.8922803 -0.78807067 0 0 Z " fill="#F9FAFF" transform="translate(187,186)"/>
<path d="M0 0 C3.84375 1.6796875 3.84375 1.6796875 5.25 4.5625 C7.60850652 15.37232157 4.81189827 24.78112688 -1 34 C-1.53367187 33.73445313 -2.06734375 33.46890625 -2.6171875 33.1953125 C-8.32371371 30.49014263 -13.77182518 28.9881864 -20 28 C-20 27.34 -20 26.68 -20 26 C-19.06027344 26.03480469 -19.06027344 26.03480469 -18.1015625 26.0703125 C-16.87566406 26.09738281 -16.87566406 26.09738281 -15.625 26.125 C-14.81289063 26.14820313 -14.00078125 26.17140625 -13.1640625 26.1953125 C-10.78657757 26.21370051 -10.78657757 26.21370051 -9 24 C-10.32 22.02 -11.64 20.04 -13 18 C-9.7 18.66 -6.4 19.32 -3 20 C-2.690625 19.05125 -2.38125 18.1025 -2.0625 17.125 C-1 14 -1 14 0 12 C0.07065617 9.95944995 0.08421976 7.91665743 0.0625 5.875 C0.05347656 4.77929688 0.04445313 3.68359375 0.03515625 2.5546875 C0.02355469 1.71164063 0.01195312 0.86859375 0 0 Z " fill="#F7F8FF" transform="translate(271,142)"/>
<path d="M0 0 C2.64 0 5.28 0 8 0 C8 0.66 8 1.32 8 2 C9.32 2.33 10.64 2.66 12 3 C12.24983757 8.74626409 11.87329241 14.52036926 10 20 C9.01 20.66 8.02 21.32 7 22 C7 21.34 7 20.68 7 20 C5.700625 20.020625 4.40125 20.04125 3.0625 20.0625 C1.70834367 20.08399454 0.35243917 20.07148199 -1 20 C-1.33 19.67 -1.66 19.34 -2 19 C-1.9351364 16.74746416 -1.79747675 14.49685931 -1.625 12.25 C-1.53476562 11.01765625 -1.44453125 9.7853125 -1.3515625 8.515625 C-1.06074821 5.6074821 -0.64115865 2.84717909 0 0 Z " fill="#F5F8FB" transform="translate(367,292)"/>
<path d="M0 0 C3.24120574 1.62060287 3.87043198 5.09832706 5.1875 8.3125 C9.47218964 18.40785588 14.26113019 28.08524678 22 36 C25.47325181 37.1577506 28.36067448 37.06866652 32 37 C30.68 35.68 29.36 34.36 28 33 C28.495 32.01 28.495 32.01 29 31 C32 34 35 37 38 40 C37.34 40 36.68 40 36 40 C36 40.66 36 41.32 36 42 C33.11449286 43.96214485 30.46229827 44.53383626 26.99609375 43.9375 C22.31512024 41.73899972 19.22388716 36.91164976 16 33 C12.01345874 28.80902073 7.69229709 25.01296412 3.3828125 21.16015625 C0.83216512 18.84784805 -1.60663858 16.47314013 -4 14 C-3.67 13.34 -3.34 12.68 -3 12 C-2.443125 12.639375 -1.88625 13.27875 -1.3125 13.9375 C1.2571149 16.2293187 2.68028226 16.47699306 6 17 C5.48308594 16.02417969 4.96617187 15.04835937 4.43359375 14.04296875 C3.76770467 12.75808418 3.10236872 11.47291285 2.4375 10.1875 C2.09525391 9.54490234 1.75300781 8.90230469 1.40039062 8.24023438 C0.5234977 6.53073605 -0.24515617 4.76678706 -1 3 C-0.67 2.01 -0.34 1.02 0 0 Z " fill="#5E7BFF" transform="translate(183,217)"/>
<path d="M0 0 C3.84375 0.7890625 3.84375 0.7890625 5.25 2.6875 C6.97398565 8.00312243 5.83414804 12.05771758 3.5625 17 C1.60470159 21.28372985 0.80227023 24.18637861 0 29 C-6.27 29 -12.54 29 -19 29 C-18.505 27.515 -18.505 27.515 -18 26 C-16.72125 25.9175 -15.4425 25.835 -14.125 25.75 C-10.83575916 25.36546191 -10.83575916 25.36546191 -8.3125 23.3125 C-7.8504795 19.89354832 -9.28762875 17.89785904 -11 15 C-8.36 15.66 -5.72 16.32 -3 17 C-0.4084738 11.06108578 0.40368295 6.45892714 0 0 Z " fill="#F6F7FF" transform="translate(250,140)"/>
<path d="M0 0 C1.28132813 0.00902344 2.56265625 0.01804687 3.8828125 0.02734375 C4.87023437 0.03894531 5.85765625 0.05054687 6.875 0.0625 C6.875 0.3925 6.875 0.7225 6.875 1.0625 C5.98748047 1.31773438 5.98748047 1.31773438 5.08203125 1.578125 C0.2592671 3.0572109 -3.42355998 4.47672998 -7.125 8.0625 C-8.61998913 11.05247825 -8.24077446 13.76292775 -8.125 17.0625 C-7.795 18.0525 -7.465 19.0425 -7.125 20.0625 C-8.1459375 19.8459375 -8.1459375 19.8459375 -9.1875 19.625 C-15.95287067 17.88009705 -15.95287067 17.88009705 -22.125 20.0625 C-22.08719702 22.43483611 -22.08719702 22.43483611 -21.125 25.0625 C-18.16650073 27.39664647 -18.16650073 27.39664647 -15.125 29.0625 C-16.61 31.5375 -16.61 31.5375 -18.125 34.0625 C-20.5625 33.375 -20.5625 33.375 -23.125 32.0625 C-23.9375 29.9375 -23.9375 29.9375 -24.125 27.0625 C-24.17527344 26.4025 -24.22554687 25.7425 -24.27734375 25.0625 C-24.41317921 22.10672032 -24.47059597 19.71303359 -23.0625 17.0625 C-20.10412322 15.53559585 -17.38783401 15.87781128 -14.125 16.0625 C-14.21201172 15.19238281 -14.21201172 15.19238281 -14.30078125 14.3046875 C-14.55207555 9.95370624 -14.61955454 7.01269754 -11.75 3.5625 C-7.68753903 -0.30651045 -5.54100272 -0.05037275 0 0 Z " fill="#6F89FF" transform="translate(194.125,80.9375)"/>
<path d="M0 0 C4.875 0.875 4.875 0.875 6 2 C7.08093564 15.37879357 7.08093564 15.37879357 4 19.875 C3.34 20.57625 2.68 21.2775 2 22 C-0.4375 21.625 -0.4375 21.625 -3 21 C-5.20277942 16.59444115 -4.44750656 10.79471309 -4 6 C-2.94459868 3.41449721 -1.90431283 2.08284216 0 0 Z " fill="#F6F9FC" transform="translate(408,292)"/>
<path d="M0 0 C0.66 0 1.32 0 2 0 C3.76868441 6.60308846 3.76868441 6.60308846 1.82421875 10.13671875 C-2.19851679 14.99174441 -7.04451911 18.81141338 -13 21 C-15.7734375 21.125 -15.7734375 21.125 -18 21 C-17.05780359 16.11372558 -14.49374488 12.48598101 -11 9 C-8.68652128 8.26739841 -6.354248 7.588562 -4 7 C-2.61141128 4.57114212 -2.61141128 4.57114212 -2 2 C-1.34 1.34 -0.68 0.68 0 0 Z " fill="#F7F8FF" transform="translate(296,209)"/>
<path d="M0 0 C0.78375 0.04125 1.5675 0.0825 2.375 0.125 C2.045 0.785 1.715 1.445 1.375 2.125 C0.385 2.125 -0.605 2.125 -1.625 2.125 C-2.285 4.105 -2.945 6.085 -3.625 8.125 C0.00293998 6.25933512 0.00293998 6.25933512 2.375 3.125 C3.035 3.125 3.695 3.125 4.375 3.125 C3.44629064 6.24884058 2.84312241 7.799915 0.125 9.6875 C-0.7825 10.161875 -1.69 10.63625 -2.625 11.125 C-4.63080329 12.44958708 -6.63215862 13.7809907 -8.625 15.125 C-7.490625 15.599375 -6.35625 16.07375 -5.1875 16.5625 C-1.625 18.125 -1.625 18.125 -0.625 19.125 C1.78982413 19.62559916 1.78982413 19.62559916 4.375 19.125 C8.0657307 15.02418811 8.50494344 9.39651913 9.375 4.125 C9.705 4.125 10.035 4.125 10.375 4.125 C10.70899969 14.05221304 9.59077621 22.118569 5.375 31.125 C2.41387732 28.37970259 0.59085752 25.32393522 -1.44140625 21.8671875 C-2.52045329 19.97372019 -2.52045329 19.97372019 -4.625 19.125 C-9.95467208 18.78407959 -9.95467208 18.78407959 -14.625 21.125 C-12.50380087 16.11125661 -9.131805 12.12953667 -4.625 9.125 C-4.58333998 6.7920386 -4.58333998 4.4579614 -4.625 2.125 C-2.625 0.125 -2.625 0.125 0 0 Z " fill="#5876FF" transform="translate(311.625,170.875)"/>
<path d="M0 0 C3.28844292 1.35244938 4.59545659 2.45492383 6.0625 5.6875 C6.39894531 6.40164062 6.73539062 7.11578125 7.08203125 7.8515625 C7.88207378 9.72400247 8.57584009 11.64114425 9.25 13.5625 C11.60138239 18.18128684 14.9629867 20.84518438 19 24 C18.34 24.66 17.68 25.32 17 26 C16.34 25.34 15.68 24.68 15 24 C15.3196875 24.56074219 15.639375 25.12148437 15.96875 25.69921875 C17.77339862 29.72549919 17.7796753 33.69196358 17 38 C14.98837153 41.43087554 12.58021267 44.20989367 9 46 C6 46.1875 6 46.1875 3 46 C1 44 1 44 0.91015625 41.171875 C0.96042969 40.04265625 1.01070313 38.9134375 1.0625 37.75 C1.16644257 32.49512559 0.53526736 29.62961866 -2 25 C-1.930018 20.94104421 -1.61100089 18.79430116 0.875 15.5625 C3 14 3 14 6 14 C5.57316761 12.41375765 5.13303842 10.8310902 4.6875 9.25 C4.44386719 8.36828125 4.20023437 7.4865625 3.94921875 6.578125 C2.97874669 3.94227495 1.78994356 2.14592674 0 0 Z M1.3125 17.0625 C-0.73469232 20.08454581 -0.36840006 22.43879941 0 26 C0.49886719 26.75925781 0.99773437 27.51851562 1.51171875 28.30078125 C3.37760367 31.68484024 3.30373263 33.97682335 3.1875 37.8125 C3.16042969 38.97394531 3.13335937 40.13539063 3.10546875 41.33203125 C3.07066406 42.21246094 3.03585937 43.09289062 3 44 C5.34017082 44.71546024 5.34017082 44.71546024 8 45 C12.15042014 42.08665255 12.15042014 42.08665255 15 38 C15.99973702 30.59688408 15.01696896 25.80094773 10.60546875 19.77734375 C8.92933061 17.77549416 8.92933061 17.77549416 6 16 C3.09076108 15.73359337 3.09076108 15.73359337 1.3125 17.0625 Z " fill="#7B93FF" transform="translate(286,137)"/>
<path d="M0 0 C4.55555556 0.55555556 4.55555556 0.55555556 6 2 C6.74415291 7.8291978 5.07643321 11.71873402 2.58203125 16.9609375 C1 19 1 19 -1.55078125 19.9140625 C-2.76314453 19.95660156 -2.76314453 19.95660156 -4 20 C-6 18 -6 18 -6.375 14.375 C-6.25252322 8.78189383 -3.93357767 3.93357767 0 0 Z " fill="#EEF3F9" transform="translate(168,294)"/>
<path d="M0 0 C1.875 0.6875 1.875 0.6875 2.875 1.6875 C3.48437743 7.65939882 2.07675066 11.76172976 -1.125 16.6875 C-2.59375 18.44140625 -2.59375 18.44140625 -4.125 19.6875 C-6.8125 19.375 -6.8125 19.375 -9.125 18.6875 C-9.66798306 12.1717033 -9.00877017 7.10399552 -5.125 1.6875 C-2.125 -0.3125 -2.125 -0.3125 0 0 Z " fill="#F4F7FB" transform="translate(337.125,292.3125)"/>
<path d="M0 0 C3.53571429 0.53571429 3.53571429 0.53571429 5 2 C5.65015687 8.06813081 4.65598873 11.96748441 1.51171875 17.2109375 C0 19 0 19 -3.3125 20.0625 C-4.199375 20.041875 -5.08625 20.02125 -6 20 C-7.85638339 16.28723323 -6.80158492 11.95934368 -6 8 C-4.53131882 4.83074062 -2.46851711 2.46851711 0 0 Z " fill="#F7F9FC" transform="translate(132,292)"/>
<path d="M0 0 C0.68758416 12.87310339 0.68758416 12.87310339 -1.6875 16.8125 C-4 19 -4 19 -6.5 19.5625 C-9.36291778 18.9183435 -10.70889668 17.78992447 -13 16 C-15.64934822 15.28566879 -15.64934822 15.28566879 -18 15 C-15.43319599 12.20671328 -13.39538675 10.1855897 -9.9375 8.5625 C-6.33468857 6.64611094 -5.09355225 4.43940727 -3 1 C-1 0 -1 0 0 0 Z " fill="#F6F8FF" transform="translate(320,172)"/>
<path d="M0 0 C3.31888746 0.08733914 4.76121277 0.79993502 7.3125 2.9375 C9.70691458 7.28291905 9.33949794 11.14329334 9 16 C5.86501708 17.85776765 3.62528568 18.20140476 0 18 C-0.06058594 17.26394531 -0.12117187 16.52789062 -0.18359375 15.76953125 C-0.26738281 14.79371094 -0.35117188 13.81789062 -0.4375 12.8125 C-0.51871094 11.84957031 -0.59992188 10.88664063 -0.68359375 9.89453125 C-0.93727471 7.00510314 -0.93727471 7.00510314 -1.66015625 4.26171875 C-1.77230469 3.51535156 -1.88445312 2.76898438 -2 2 C-1.34 1.34 -0.68 0.68 0 0 Z " fill="#F9FAFF" transform="translate(232,212)"/>
<path d="M0 0 C2.0625 0.25 2.0625 0.25 4 1 C5.38226016 3.76452033 5.09525387 6.0461363 5.0625 9.125 C5.05347656 10.22070312 5.04445312 11.31640625 5.03515625 12.4453125 C5.02355469 13.28835937 5.01195312 14.13140625 5 15 C1.20960634 17.12999997 -1.65736138 17.16702456 -6 17 C-5.60763388 10.03211898 -5.12487711 5.12487711 0 0 Z " fill="#FAFBFF" transform="translate(191,120)"/>
<path d="M0 0 C6.258654 -0.5326514 10.45108785 1.18150494 16 4 C14.4353658 7.32141645 13.27840462 9.1786641 10 11 C7 11.5 7 11.5 4 11 C0.94338095 8.26513033 0.06025422 6.79836847 -0.25 2.6875 C-0.1675 1.800625 -0.085 0.91375 0 0 Z " fill="#F9FAFF" transform="translate(252,172)"/>
<path d="M0 0 C1.32 0.66 2.64 1.32 4 2 C4 5.63 4 9.26 4 13 C-0.72224516 11.46527032 -5.35855331 9.76054874 -10 8 C-10.25 5.6875 -10.25 5.6875 -10 3 C-7.01483053 -0.3296121 -4.31439824 -0.44941648 0 0 Z " fill="#F4F6FF" transform="translate(184,138)"/>
<path d="M0 0 C2.24192004 3.09912476 2.7983144 4.98368558 2.55859375 8.8046875 C1.80523628 12.5103918 0.25507036 15.82013426 -1.875 18.9375 C-2.535 19.2675 -3.195 19.5975 -3.875 19.9375 C-3.17504181 16.78768814 -2.09244864 13.92173386 -0.875 10.9375 C-2.79041138 10.82908049 -4.70759773 10.75171921 -6.625 10.6875 C-7.69234375 10.64109375 -8.7596875 10.5946875 -9.859375 10.546875 C-12.95190721 10.69339286 -12.95190721 10.69339286 -15.19140625 12.6953125 C-16.87216885 14.93372952 -17.46377088 16.37077761 -18.0625 19.0625 C-18.75 21.1640625 -18.75 21.1640625 -19.875 22.9375 C-22.81929868 24.23088835 -25.68406672 24.6699165 -28.875 24.9375 C-27.125 22.9375 -27.125 22.9375 -24.875 20.9375 C-23.555 20.9375 -22.235 20.9375 -20.875 20.9375 C-20.7925 20.050625 -20.71 19.16375 -20.625 18.25 C-19.48952296 13.2349764 -17.09064211 10.74792808 -12.875 7.9375 C-10.53515625 7.671875 -10.53515625 7.671875 -7.9375 7.6875 C-7.08285156 7.68234375 -6.22820312 7.6771875 -5.34765625 7.671875 C-2.75525433 7.95036367 -1.10985766 8.63080828 1.125 9.9375 C0.08363991 5.15881 0.08363991 5.15881 -2.4375 1.0625 C-6.11564853 -0.63510701 -9.86448309 -0.81398506 -13.875 -1.0625 C-13.875 -1.3925 -13.875 -1.7225 -13.875 -2.0625 C-8.44088814 -3.50094137 -4.6421889 -3.33026595 0 0 Z " fill="#738CFF" transform="translate(209.875,84.0625)"/>
<path d="M0 0 C3.44216672 2.6598561 3.99504674 5.90288286 5 10 C2.03 11.32 -0.94 12.64 -4 14 C-6.63379708 10.34666857 -8.46884894 7.51478398 -9 3 C-8.43410156 2.86722656 -7.86820313 2.73445312 -7.28515625 2.59765625 C-6.18494141 2.33275391 -6.18494141 2.33275391 -5.0625 2.0625 C-4.33160156 1.88847656 -3.60070312 1.71445313 -2.84765625 1.53515625 C-1.00030102 1.16112431 -1.00030102 1.16112431 0 0 Z " fill="#F9FAFF" transform="translate(241,229)"/>
<path d="M0 0 C0.33 0 0.66 0 1 0 C1.226875 0.886875 1.45375 1.77375 1.6875 2.6875 C3.73460347 7.85399923 6.56673526 10.24427859 11.4375 12.8125 C16.10370602 14.36790201 19.34321782 14.55226073 24 13 C24.33 12.01 24.66 11.02 25 10 C25.66 10.33 26.32 10.66 27 11 C25.35 12.65 23.7 14.3 22 16 C25.39425555 23.43424753 31.27012174 28.60497746 38 33 C37.34 33.66 36.68 34.32 36 35 C33.53702794 32.7341551 31.08045619 30.46148543 28.625 28.1875 C27.92632812 27.54490234 27.22765625 26.90230469 26.5078125 26.24023438 C25.8375 25.61826172 25.1671875 24.99628906 24.4765625 24.35546875 C23.85861816 23.78465576 23.24067383 23.21384277 22.60400391 22.62573242 C21 21 21 21 19 18 C17.01996343 17.13262717 17.01996343 17.13262717 14.75 16.5625 C8.30666011 14.56640915 3.87628569 11.59907933 0 6 C-1 3 -1 3 0 0 Z " fill="#7089FF" transform="translate(168,153)"/>
<path d="M0 0 C0.83912518 2.90968309 1.10851428 5.4530406 1.0625 8.4765625 C1.05476562 9.311875 1.04703125 10.1471875 1.0390625 11.0078125 C1.02617187 11.87148437 1.01328125 12.73515625 1 13.625 C0.9745371 15.34629191 0.95348829 17.06765651 0.9375 18.7890625 C0.92589844 19.54912598 0.91429687 20.30918945 0.90234375 21.09228516 C0.87667365 23.08743296 0.87667365 23.08743296 2 25 C2.039992 26.99960012 2.04346799 29.00047242 2 31 C0.37025436 30.23925157 -1.25366648 29.46601567 -2.875 28.6875 C-3.77992188 28.25824219 -4.68484375 27.82898438 -5.6171875 27.38671875 C-8 26 -8 26 -10 23 C-9.21625 22.896875 -8.4325 22.79375 -7.625 22.6875 C-4.66954819 22.22404978 -4.66954819 22.22404978 -3 19 C-2.6373883 17.07255631 -2.6373883 17.07255631 -2.5859375 14.98828125 C-2.54726562 14.23095703 -2.50859375 13.47363281 -2.46875 12.69335938 C-2.4378125 11.90767578 -2.406875 11.12199219 -2.375 10.3125 C-2.33632812 9.51521484 -2.29765625 8.71792969 -2.2578125 7.89648438 C-2.16367506 5.93136525 -2.08075368 3.9657146 -2 2 C-1.34 2 -0.68 2 0 2 C0 1.34 0 0.68 0 0 Z " fill="#5C79FF" transform="translate(215,164)"/>
<path d="M0 0 C2 2 2 2 2.375 4.4375 C2 7 2 7 0.3125 8.8125 C-2.42827048 10.21992268 -3.95973624 10.46773289 -7 10 C-8.875 8.75 -8.875 8.75 -10 7 C-9.84762499 4.56199983 -9.17726646 3.26123478 -7.8125 1.25 C-5.15719009 -0.58124821 -3.14359918 -0.33442545 0 0 Z " fill="#1156B2" transform="translate(389,274)"/>
<path d="M0 0 C5.36842105 -0.35789474 5.36842105 -0.35789474 7.875 1.0625 C9.66830867 4.15097604 9.42841969 6.51143969 9 10 C7.3125 12.5 7.3125 12.5 5 14 C2.25 13.75 2.25 13.75 0 13 C-0.2295711 9.63295715 -0.33943529 7.58629732 1.375 4.625 C1.91125 4.08875 2.4475 3.5525 3 3 C3.66 3 4.32 3 5 3 C5 2.34 5 1.68 5 1 C3.35 1 1.7 1 0 1 C0 0.67 0 0.34 0 0 Z " fill="#738CFF" transform="translate(243,190)"/>
<path d="M0 0 C2.54384726 1.27192363 2.69368156 2.19948469 3.6875 4.8125 C3.95949219 5.49957031 4.23148437 6.18664062 4.51171875 6.89453125 C5.06812731 9.29376496 4.77364938 10.6894364 4 13 C3.67 11.68 3.34 10.36 3 9 C2.27554687 9.48210937 1.55109375 9.96421875 0.8046875 10.4609375 C-0.16210938 11.09257812 -1.12890625 11.72421875 -2.125 12.375 C-3.07632812 13.00148437 -4.02765625 13.62796875 -5.0078125 14.2734375 C-8.71392055 16.41194893 -12.02575006 18.31172367 -16.375 17.625 C-17.179375 17.315625 -17.179375 17.315625 -18 17 C-17.27554687 16.64808594 -16.55109375 16.29617187 -15.8046875 15.93359375 C-9.78341144 12.85872877 -4.54836393 9.93199772 -1 4 C-0.34008566 1.87427 -0.34008566 1.87427 0 0 Z " fill="#5C79FF" transform="translate(299,213)"/>
<path d="M0 0 C0.33 0 0.66 0 1 0 C1.48798077 6.34375 1.48798077 6.34375 -0.8125 9.4375 C-3 11 -3 11 -6 11 C-6.3403125 11.9590625 -6.3403125 11.9590625 -6.6875 12.9375 C-8 15 -8 15 -10.25 16 C-14.1445502 16 -16.03637202 14.41225533 -19 12 C-19 11.34 -19 10.68 -19 10 C-15.7 10.33 -12.4 10.66 -9 11 C-8.67 9.68 -8.34 8.36 -8 7 C-6.5459375 6.5359375 -6.5459375 6.5359375 -5.0625 6.0625 C-1.78408334 5.31669923 -1.78408334 5.31669923 -0.625 2.375 C-0.315625 1.199375 -0.315625 1.199375 0 0 Z " fill="#6782FF" transform="translate(197,147)"/>
<path d="M0 0 C1.134375 0.020625 2.26875 0.04125 3.4375 0.0625 C3.540625 0.97 3.64375 1.8775 3.75 2.8125 C4.44164949 6.08211575 5.25884921 7.59967737 7.4375 10.0625 C4.1875 10.8125 4.1875 10.8125 0.4375 11.0625 C-2.74705793 8.9673961 -3.43376889 7.56752204 -4.375 3.875 C-4.436875 2.946875 -4.49875 2.01875 -4.5625 1.0625 C-3.5625 0.0625 -3.5625 0.0625 0 0 Z " fill="#F9FAFF" transform="translate(235.5625,169.9375)"/>
<path d="M0 0 C6.12784305 -0.51065359 9.7185595 1.01625836 15 4 C16.33006776 4.6731582 17.66254076 5.34164978 19 6 C19.99 5.01 20.98 4.02 22 3 C22.53190541 4.43344 23.05015258 5.87195367 23.5625 7.3125 C23.85253906 8.11300781 24.14257812 8.91351563 24.44140625 9.73828125 C25 12 25 12 24 15 C18.98343041 13.5666944 16.98547118 11.09436048 14 7 C14 6.34 14 5.68 14 5 C12.86111328 4.70996094 12.86111328 4.70996094 11.69921875 4.4140625 C10.20841797 4.02347656 10.20841797 4.02347656 8.6875 3.625 C7.20830078 3.24214844 7.20830078 3.24214844 5.69921875 2.8515625 C3 2 3 2 0 0 Z " fill="#8DA1FF" transform="translate(196,190)"/>
<path d="M0 0 C0.66 0.33 1.32 0.66 2 1 C1.3709375 1.47308594 0.741875 1.94617188 0.09375 2.43359375 C-10.65588619 10.73865906 -16.72626487 18.45388489 -22 31 C-22.65347695 32.33984704 -23.31417389 33.67641971 -24 35 C-25.76691229 29.69926313 -22.38475464 24.80619782 -20 20 C-18.19873821 17.13917245 -16.18155628 14.57769566 -14 12 C-13.52691406 11.38382813 -13.05382812 10.76765625 -12.56640625 10.1328125 C-9.10978793 5.76754383 -5.16726315 2.23449217 0 0 Z " fill="#728BFF" transform="translate(240,130)"/>
<path d="M0 0 C0.78375 0.04125 1.5675 0.0825 2.375 0.125 C2.045 0.785 1.715 1.445 1.375 2.125 C0.385 2.125 -0.605 2.125 -1.625 2.125 C-2.285 4.105 -2.945 6.085 -3.625 8.125 C0.00293998 6.25933512 0.00293998 6.25933512 2.375 3.125 C3.035 3.125 3.695 3.125 4.375 3.125 C3.44629064 6.24884058 2.84312241 7.799915 0.125 9.6875 C-0.7825 10.161875 -1.69 10.63625 -2.625 11.125 C-4.63080329 12.44958708 -6.63215862 13.7809907 -8.625 15.125 C-6.645 15.785 -4.665 16.445 -2.625 17.125 C-3.285 17.785 -3.945 18.445 -4.625 19.125 C-6.95833333 19.125 -9.29166667 19.125 -11.625 19.125 C-12.615 19.785 -13.605 20.445 -14.625 21.125 C-12.50380087 16.11125661 -9.131805 12.12953667 -4.625 9.125 C-4.58333998 6.7920386 -4.58333998 4.4579614 -4.625 2.125 C-2.625 0.125 -2.625 0.125 0 0 Z " fill="#6480FF" transform="translate(311.625,170.875)"/>
<path d="M0 0 C2.5417666 3.8126499 4.00365091 7.839957 5.68359375 12.08984375 C6.88165138 14.73836877 8.1567232 16.76979629 10 19 C9.814375 18.175 9.62875 17.35 9.4375 16.5 C8.9225916 12.38073281 9.36507072 9.09176645 10 5 C10.33 5 10.66 5 11 5 C11.06058594 5.80824219 11.12117187 6.61648437 11.18359375 7.44921875 C11.26738281 8.51785156 11.35117188 9.58648437 11.4375 10.6875 C11.51871094 11.74324219 11.59992188 12.79898438 11.68359375 13.88671875 C11.96451681 16.65086297 12.40156852 19.28945741 13 22 C12.01 22.66 11.02 23.32 10 24 C0.9268947 10.59423206 0.9268947 10.59423206 -1 3 C-0.67 2.01 -0.34 1.02 0 0 Z " fill="#758EFF" transform="translate(171,195)"/>
<path d="M0 0 C2.37706418 3.66539668 2.05094317 6.49056835 1.625 10.75 C1.45871094 12.50570312 1.45871094 12.50570312 1.2890625 14.296875 C1.14597656 15.63492188 1.14597656 15.63492188 1 17 C0.67 17 0.34 17 0 17 C-0.33 14.36 -0.66 11.72 -1 9 C-3.44480079 9.18828772 -3.44480079 9.18828772 -6 10 C-6.69937532 11.31647119 -7.36729133 12.65022151 -8 14 C-10.125 14.75 -10.125 14.75 -12 15 C-11.67 13.02 -11.34 11.04 -11 9 C-7.34543185 8.24758891 -3.68266103 7.59950296 0 7 C-0.2784375 5.824375 -0.2784375 5.824375 -0.5625 4.625 C-1 2 -1 2 0 0 Z " fill="#869BFF" transform="translate(320,164)"/>
<path d="M0 0 C4.39366678 0.50213335 6.87182342 1.87182342 10 5 C10.8125 7.75 10.8125 7.75 11 10 C5.37082652 9.59791618 2.99613521 7.71069698 -1 4 C-0.67 2.68 -0.34 1.36 0 0 Z " fill="#F3F5FF" transform="translate(241,171)"/>
<path d="M0 0 C3 1 3 1 4.1875 3 C6.5552336 11.74240099 4.2546263 19.72089588 1 28 C0.34 28.66 -0.32 29.32 -1 30 C-1.33 29.34 -1.66 28.68 -2 28 C-1.27518312 26.25385025 -0.54492829 24.509441 0.23046875 22.78515625 C3.38667031 15.46340949 2.50033948 7.34474722 0 0 Z " fill="#7A92FF" transform="translate(274,143)"/>
<path d="M0 0 C2.70133777 1.28833032 5.10643472 2.7346988 7.5625 4.4375 C12.36701811 7.50730552 17.48468274 8.75297055 23 10 C23 10.33 23 10.66 23 11 C16.66830018 11.5862685 12.94156388 10.35382043 7.39453125 7.2890625 C4.93936983 5.96736059 2.67643914 4.79723719 0 4 C-0.99 4.66 -1.98 5.32 -3 6 C-3.33 5.34 -3.66 4.68 -4 4 C-2.68 2.68 -1.36 1.36 0 0 Z " fill="#7A92FF" transform="translate(318,247)"/>
<path d="M0 0 C0.66 0 1.32 0 2 0 C3.38226016 2.76452033 3.09525387 5.0461363 3.0625 8.125 C3.05347656 9.22070312 3.04445312 10.31640625 3.03515625 11.4453125 C3.02355469 12.28835937 3.01195312 13.13140625 3 14 C1.68 14.33 0.36 14.66 -1 15 C-2.20220203 11.46905698 -1.79532349 8.87101018 -1.0625 5.25 C-0.86785156 4.26515625 -0.67320312 3.2803125 -0.47265625 2.265625 C-0.31667969 1.51796875 -0.16070312 0.7703125 0 0 Z " fill="#F7F8FF" transform="translate(227,216)"/>
<path d="M0 0 C2.9416894 0.25579908 5.28861123 0.5968797 7.875 2.0625 C11.26591094 3.55849012 14.31414088 3.17834802 18 3 C18.66 2.67 19.32 2.34 20 2 C19.67 3.32 19.34 4.64 19 6 C15.8125 7.25 15.8125 7.25 12 8 C9.625 6.25 9.625 6.25 7 4 C4.04107248 3.07877722 1.0550146 2.5058412 -2 2 C-1.34 1.34 -0.68 0.68 0 0 Z " fill="#768EFF" transform="translate(176,147)"/>
<path d="M0 0 C0.99 0.33 1.98 0.66 3 1 C3.05410687 2.77049689 3.09284119 4.54146849 3.125 6.3125 C3.14820313 7.29863281 3.17140625 8.28476563 3.1953125 9.30078125 C3 12 3 12 1 15 C0.01 14.67 -0.98 14.34 -2 14 C-1.34 9.38 -0.68 4.76 0 0 Z " fill="#EEF1FF" transform="translate(222,213)"/>
<path d="M0 0 C0.66 0.33 1.32 0.66 2 1 C2.16682272 5.92127034 2.24828052 9.50343896 0 14 C-0.99 13.67 -1.98 13.34 -3 13 C-2.45144652 8.428721 -1.58255197 4.32564205 0 0 Z " fill="#F1F3FF" transform="translate(219,210)"/>
<path d="M0 0 C1.19882812 0.15275391 1.19882812 0.15275391 2.421875 0.30859375 C3.02515625 0.39238281 3.6284375 0.47617188 4.25 0.5625 C4.25 0.8925 4.25 1.2225 4.25 1.5625 C3.48816406 1.67207031 2.72632813 1.78164062 1.94140625 1.89453125 C-4.56663749 2.89389377 -10.58213207 4.27082932 -16.75 6.5625 C-17.74 6.8925 -18.73 7.2225 -19.75 7.5625 C-20.08 6.9025 -20.41 6.2425 -20.75 5.5625 C-18.8348421 4.74645001 -16.91781166 3.93479368 -15 3.125 C-13.93265625 2.67253906 -12.8653125 2.22007813 -11.765625 1.75390625 C-7.44986293 0.04884481 -4.61666507 -0.6110292 0 0 Z " fill="#7F96FF" transform="translate(261.75,123.4375)"/>
<path d="M0 0 C0.33 1.98 0.66 3.96 1 6 C-1.31 6.33 -3.62 6.66 -6 7 C-6.33 5.68 -6.66 4.36 -7 3 C-8.65 2.67 -10.3 2.34 -12 2 C-12 1.67 -12 1.34 -12 1 C-7.915021 0.45533613 -4.1274515 0 0 0 Z " fill="#B8C4FF" transform="translate(196,111)"/>
<path d="M0 0 C3.43742918 -0.05802698 6.87473253 -0.09360486 10.3125 -0.125 C11.28896484 -0.14175781 12.26542969 -0.15851563 13.27148438 -0.17578125 C14.20927734 -0.18222656 15.14707031 -0.18867188 16.11328125 -0.1953125 C16.97735596 -0.20578613 17.84143066 -0.21625977 18.73168945 -0.22705078 C21 0 21 0 24 2 C20.56296699 2.19682269 17.12536573 2.38085152 13.6875 2.5625 C12.71103516 2.61857422 11.73457031 2.67464844 10.72851562 2.73242188 C9.79072266 2.78076172 8.85292969 2.82910156 7.88671875 2.87890625 C7.02264404 2.9260376 6.15856934 2.97316895 5.26831055 3.02172852 C3 3 3 3 0 2 C0 1.34 0 0.68 0 0 Z " fill="#7890FF" transform="translate(243,217)"/>
<path d="M0 0 C1.32 0.33 2.64 0.66 4 1 C3.01 1.33 2.02 1.66 1 2 C1.36405249 4.70438996 1.68142682 5.74406383 3.84765625 7.484375 C4.57855469 7.90203125 5.30945313 8.3196875 6.0625 8.75 C6.79597656 9.17796875 7.52945313 9.6059375 8.28515625 10.046875 C9.13400391 10.51867187 9.13400391 10.51867187 10 11 C7.24921116 11.91692961 5.64051087 12.10886083 2.8125 12.0625 C0.9253125 12.0315625 0.9253125 12.0315625 -1 12 C-0.01 11.01 0.98 10.02 2 9 C0.68 7.35 -0.64 5.7 -2 4 C-1.34 2.68 -0.68 1.36 0 0 Z " fill="#6984FF" transform="translate(240,170)"/>
<path d="M0 0 C0.33 0 0.66 0 1 0 C1.36103152 6.3782235 1.36103152 6.3782235 -0.125 8.9375 C-2.785027 10.44484863 -5.00206205 10.19986253 -8 10 C-8 9.01 -8 8.02 -8 7 C-7.05125 6.773125 -6.1025 6.54625 -5.125 6.3125 C-1.80676612 5.30916286 -1.80676612 5.30916286 -0.625 2.375 C-0.41875 1.59125 -0.2125 0.8075 0 0 Z " fill="#5A78FF" transform="translate(197,147)"/>
<path d="M0 0 C0.33 0.66 0.66 1.32 1 2 C-0.32 2.99 -1.64 3.98 -3 5 C-1.02 5.66 0.96 6.32 3 7 C2.34 7.66 1.68 8.32 1 9 C-1.33333333 9 -3.66666667 9 -6 9 C-6.99 9.66 -7.98 10.32 -9 11 C-7.2034488 6.75360625 -4.18376817 2.09188408 0 0 Z " fill="#728BFF" transform="translate(306,181)"/>
<path d="M0 0 C0.99 0.33 1.98 0.66 3 1 C1.9171875 1.495 1.9171875 1.495 0.8125 2 C-2.53026368 4.37707639 -3.98152306 6.83780158 -5.984375 10.35546875 C-6.31953125 10.89816406 -6.6546875 11.44085938 -7 12 C-7.33 12 -7.66 12 -8 12 C-7.63166144 5.61546499 -7.63166144 5.61546499 -4.5625 2.625 C-2 1 -2 1 0 0 Z " fill="#E9EDFF" transform="translate(189,82)"/>
<path d="M0 0 C2.5625 1.125 2.5625 1.125 5 3 C5.8125 5.6875 5.8125 5.6875 6 8 C6.99 8.33 7.98 8.66 9 9 C7.68 9.99 6.36 10.98 5 12 C4.34 9.03 3.68 6.06 3 3 C1.35 3 -0.3 3 -2 3 C-2 2.34 -2 1.68 -2 1 C-1.34 0.67 -0.68 0.34 0 0 Z M10 5 C10.66 5.33 11.32 5.66 12 6 C11.01 6.66 10.02 7.32 9 8 C9.33 7.01 9.66 6.02 10 5 Z " fill="#768FFF" transform="translate(251,138)"/>
<path d="M0 0 C3.29818961 1.64909481 3.870756 5.27085964 5.125 8.5625 C5.40214844 9.27341797 5.67929688 9.98433594 5.96484375 10.71679688 C6.64942596 12.47546496 7.32551635 14.23743424 8 16 C7.34 16.33 6.68 16.66 6 17 C4.80015203 14.73495035 3.61505231 12.46410112 2.4375 10.1875 C2.09525391 9.54490234 1.75300781 8.90230469 1.40039062 8.24023438 C0.5234977 6.53073605 -0.24515617 4.76678706 -1 3 C-0.67 2.01 -0.34 1.02 0 0 Z " fill="#6C86FF" transform="translate(183,217)"/>
<path d="M0 0 C0.33 0 0.66 0 1 0 C1.06058594 0.80824219 1.12117187 1.61648437 1.18359375 2.44921875 C1.26738281 3.51785156 1.35117188 4.58648437 1.4375 5.6875 C1.55931641 7.27111328 1.55931641 7.27111328 1.68359375 8.88671875 C1.96451681 11.65086297 2.40156852 14.28945741 3 17 C2.01 17.66 1.02 18.32 0 19 C-0.66 17.35 -1.32 15.7 -2 14 C-1.34 14 -0.68 14 0 14 C-0.185625 13.175 -0.37125 12.35 -0.5625 11.5 C-1.0774084 7.38073281 -0.63492928 4.09176645 0 0 Z " fill="#849AFF" transform="translate(181,200)"/>
<path d="M0 0 C1.93627769 -0.10807131 3.87427756 -0.1856225 5.8125 -0.25 C7.43091797 -0.31960937 7.43091797 -0.31960937 9.08203125 -0.390625 C12 0 12 0 13.88671875 2.015625 C14.25410156 2.67046875 14.62148437 3.3253125 15 4 C13.02 4 11.04 4 9 4 C9 3.34 9 2.68 9 2 C7.88625 2.2784375 7.88625 2.2784375 6.75 2.5625 C4.05009037 2.99203108 2.55368923 2.85122974 0 2 C0 1.34 0 0.68 0 0 Z " fill="#90A4FF" transform="translate(235,168)"/>
<path d="M0 0 C0.66 0.33 1.32 0.66 2 1 C1.34 2.32 0.68 3.64 0 5 C1.32 5.33 2.64 5.66 4 6 C0.00439392 8.83022097 -3.42737323 7.76210446 -8 7 C-8 6.67 -8 6.34 -8 6 C-6.02 5.67 -4.04 5.34 -2 5 C-1.855625 4.360625 -1.71125 3.72125 -1.5625 3.0625 C-1 1 -1 1 0 0 Z " fill="#8198FF" transform="translate(278,225)"/>
<path d="M0 0 C3.5625 0.3125 3.5625 0.3125 5.5 1.625 C6.5625 3.3125 6.5625 3.3125 6.5625 6.3125 C5.9025 6.3125 5.2425 6.3125 4.5625 6.3125 C3.94375 5.631875 3.325 4.95125 2.6875 4.25 C0.7874273 2.06627383 0.7874273 2.06627383 -1.5 2.375 C-3.61984182 3.40072992 -4.89936836 4.54364862 -6.4375 6.3125 C-5.55427706 1.8963853 -4.77389749 0.43399068 0 0 Z " fill="#647FFF" transform="translate(291.4375,151.6875)"/>
<path d="M0 0 C0.99 0 1.98 0 3 0 C3.125 2.375 3.125 2.375 3 5 C2.34 5.66 1.68 6.32 1 7 C0.01 7 -0.98 7 -2 7 C-1.125 1.125 -1.125 1.125 0 0 Z " fill="#F1F3FF" transform="translate(310,172)"/>
<path d="M0 0 C0.99 0.33 1.98 0.66 3 1 C1.61765122 2.03902033 0.21844209 3.05563446 -1.1875 4.0625 C-1.96480469 4.63097656 -2.74210938 5.19945312 -3.54296875 5.78515625 C-6.51983845 7.25702664 -7.887486 6.96747771 -11 6 C-11 5.67 -11 5.34 -11 5 C-10.37351563 4.80664062 -9.74703125 4.61328125 -9.1015625 4.4140625 C-8.28429687 4.15367187 -7.46703125 3.89328125 -6.625 3.625 C-5.81289062 3.36976563 -5.00078125 3.11453125 -4.1640625 2.8515625 C-1.83540815 2.10145717 -1.83540815 2.10145717 0 0 Z " fill="#7B93FF" transform="translate(230,250)"/>
<path d="M0 0 C0.99 0.33 1.98 0.66 3 1 C2.319375 1.495 2.319375 1.495 1.625 2 C-0.84319974 5.0377843 -1.18843144 8.19187061 -2 12 C-2.66 11.34 -3.32 10.68 -4 10 C-3.67800066 6.02867481 -2.16420003 3.29334787 0 0 Z " fill="#7991FF" transform="translate(188,120)"/>
<path d="M0 0 C2.9655648 1.37686937 5.39134755 3.04351066 8 5 C9.31836295 5.69580267 10.64791086 6.37224433 12 7 C9.9375 7.875 9.9375 7.875 7 8 C4.35211313 6.32045192 2.0697273 4.35602963 0 2 C0 1.34 0 0.68 0 0 Z " fill="#768FFF" transform="translate(336,236)"/>
<path d="M0 0 C4.75 1.875 4.75 1.875 7 3 C6.67 3.99 6.34 4.98 6 6 C3.11562221 4.70700306 1.12780579 3.34058637 -1 1 C-0.67 0.67 -0.34 0.34 0 0 Z " fill="#F0F2FF" transform="translate(209,191)"/>
<path d="M0 0 C0.33 0.99 0.66 1.98 1 3 C0.34 3.66 -0.32 4.32 -1 5 C-3.5625 4.75 -3.5625 4.75 -6 4 C-6.33 3.34 -6.66 2.68 -7 2 C-4.69 1.34 -2.38 0.68 0 0 Z " fill="#E3E8FF" transform="translate(195,149)"/>
<path d="M0 0 C0.33 0 0.66 0 1 0 C1.66 2.64 2.32 5.28 3 8 C1.35 8.66 -0.3 9.32 -2 10 C-2.66 9.34 -3.32 8.68 -4 8 C-3.01 7.67 -2.02 7.34 -1 7 C-0.67 4.69 -0.34 2.38 0 0 Z " fill="#8298FF" transform="translate(241,221)"/>
<path d="M0 0 C2.64 1.98 5.28 3.96 8 6 C7.01 6.66 6.02 7.32 5 8 C0 2.25 0 2.25 0 0 Z " fill="#7B93FF" transform="translate(207,159)"/>
</svg>
